<svg xmlns="http://www.w3.org/2000/svg" width="29.513" height="18.919" viewBox="0 0 29.513 18.919">
  <path id="Path_9" data-name="Path 9" d="M1312.617,823.283h-25.249a2.134,2.134,0,0,0-2.132,2.132V840.07a2.134,2.134,0,0,0,2.132,2.132h25.249a2.134,2.134,0,0,0,2.132-2.132V825.415A2.134,2.134,0,0,0,1312.617,823.283Zm-12.625,11.376-12.041-9.954h24.082Zm-13.335-9.181,7.493,6.195-7.493,8.068Zm8.59,7.1,4.292,3.548a.71.71,0,0,0,.906,0l4.292-3.548,7.615,8.2h-24.722Zm10.587-.907,7.493-6.195v14.263Z" transform="translate(-1285.236 -823.283)" fill="#1e4b74"/>
</svg>
