<svg id="Group_187" data-name="Group 187" xmlns="http://www.w3.org/2000/svg" width="28.286" height="32.038" viewBox="0 0 28.286 32.038">
  <path id="Path_470" data-name="Path 470" d="M484.881,104.648a7.706,7.706,0,0,1,2.465-.361c.209.01.42.012.629.029s.419.037.627.066.416.064.622.106.412.084.615.135l.612.151.609.165c.2.064.4.132.592.21s.381.173.565.271a7.455,7.455,0,0,1,1.993,1.532l-.05.089a14.474,14.474,0,0,1-2.365-.693c-.188-.068-.374-.139-.556-.22s-.364-.159-.542-.247l-.541-.254c-.182-.082-.367-.151-.553-.224s-.375-.127-.564-.192-.381-.109-.572-.165-.385-.094-.578-.143-.39-.072-.586-.109a8.184,8.184,0,0,0-2.4-.047Z" transform="translate(-483.929 -103.734)"/>
  <path id="Path_471" data-name="Path 471" d="M604.6,101.3a14.323,14.323,0,0,0-2.39-.164c-.2,0-.395.009-.591.023s-.392.03-.587.054-.389.046-.582.077-.385.067-.577.106a9.456,9.456,0,0,0-1.129.32c-.372.122-.746.234-1.131.321a12.6,12.6,0,0,1-2.414.373l-.036-.1a7.769,7.769,0,0,1,2.145-1.251,5.75,5.75,0,0,1,1.2-.329c.413-.063.829-.108,1.245-.146.208-.019.415-.039.624-.043s.416-.018.624-.011.415.009.622.029.413.031.617.062a12.336,12.336,0,0,1,2.386.574Z" transform="translate(-577.942 -100.539)"/>
  <path id="Path_472" data-name="Path 472" d="M638.358,289.287a3.733,3.733,0,0,0,.224-1.3,2.994,2.994,0,0,0-.316-1.3,2.562,2.562,0,0,0-.862-.983,4.7,4.7,0,0,1,.571,1.107,3.8,3.8,0,0,1,.2,1.181,5.549,5.549,0,0,1-.123,1.213c-.083.406-.2.809-.309,1.229A4.182,4.182,0,0,0,638.358,289.287Z" transform="translate(-613.957 -258.393)"/>
  <path id="Path_473" data-name="Path 473" d="M505.861,289.419a1.011,1.011,0,0,0-.091.273c-.007.04,0,.076.012.084s.017-.005.037,0a.806.806,0,0,0,.222,0c.089-.013.183-.026.278-.046.38-.086.77-.2,1.159-.309s.783-.224,1.178-.329.794-.2,1.2-.276c.812-.144,1.65-.2,2.456-.375a20.531,20.531,0,0,0,2.384-.682c.4-.13.79-.267,1.192-.377s.808-.2,1.218-.289a13.983,13.983,0,0,1,2.51-.328,8.026,8.026,0,0,1,1.3.074,4.784,4.784,0,0,1,1.295.352,2.687,2.687,0,0,1,.6.358,1.929,1.929,0,0,1,.477.532,1.8,1.8,0,0,1,.21,1.311h-.1a1.885,1.885,0,0,0-.508-1.006,2.056,2.056,0,0,0-.942-.471,8.235,8.235,0,0,0-2.3-.108c-.79.046-1.595.1-2.4.2l-1.214.147c-.406.049-.818.081-1.227.13a13.708,13.708,0,0,0-2.423.465c-.791.23-1.547.59-2.33.857a10.71,10.71,0,0,1-1.2.331c-.4.092-.813.17-1.229.23a6.939,6.939,0,0,1-1.279.084,2.271,2.271,0,0,1-.34-.035.942.942,0,0,1-.374-.142.337.337,0,0,1-.142-.239.372.372,0,0,1,.055-.218.92.92,0,0,1,.23-.252Z" transform="translate(-501.506 -259.298)"/>
  <path id="Path_474" data-name="Path 474" d="M594.963,156.425l-9.828,1.3a10.25,10.25,0,0,0-.561,3.385c0,4.339,2.579,7.857,5.762,7.857s5.762-3.518,5.762-7.857A9.829,9.829,0,0,0,594.963,156.425Z" transform="translate(-568.919 -148.183)"/>
  <path id="Path_475" data-name="Path 475" d="M594.678,156.68l-9.393,1.239a8.326,8.326,0,0,0-.711,3.4c0,3.905,2.579,7.071,5.762,7.071s5.762-3.166,5.762-7.071A8.028,8.028,0,0,0,594.678,156.68Z" transform="translate(-568.919 -148.4)" fill="#fff"/>
  <path id="Path_476" data-name="Path 476" d="M496.4,156.822l-11.283-1.539a11.077,11.077,0,0,0-.9,4.442c0,4.781,2.842,8.657,6.348,8.657s6.348-3.876,6.348-8.657a11.5,11.5,0,0,0-.386-2.979Z" transform="translate(-483.362 -147.209)"/>
  <path id="Path_477" data-name="Path 477" d="M496.4,156.993l-11.066-1.509a9.029,9.029,0,0,0-1.117,4.413c0,4.3,2.842,7.791,6.348,7.791s6.348-3.488,6.348-7.791a9.328,9.328,0,0,0-.466-2.931Z" transform="translate(-483.362 -147.381)" fill="#fff"/>
  <path id="Path_478" data-name="Path 478" d="M503.093,165.485l-.3-.041a9.429,9.429,0,0,1,.234,2.078c0,4.3-2.842,7.791-6.348,7.791a5.852,5.852,0,0,1-4.613-2.442,6.1,6.1,0,0,0,5.19,3.307c3.506,0,6.348-3.488,6.348-7.791a9.317,9.317,0,0,0-.466-2.932Z" transform="translate(-490.057 -155.872)" fill="#b3b3b3"/>
  <path id="Path_479" data-name="Path 479" d="M478.427,154.4c1.219-.038,2.426.021,3.63.1s2.4.212,3.6.368,2.384.344,3.569.568a36.009,36.009,0,0,1,3.534.836,36.042,36.042,0,0,1-3.63-.1q-1.8-.132-3.6-.369t-3.569-.569C480.777,155.008,479.6,154.755,478.427,154.4Z" transform="translate(-478.427 -146.45)"/>
  <path id="Path_480" data-name="Path 480" d="M512.167,164.067c-.876,0-1.587-.969-1.587-2.164a2.913,2.913,0,0,1,.045-.51h-.045c-1.594,0-2.885,1.586-2.885,3.541s1.292,3.541,2.885,3.541,2.886-1.586,2.886-3.541a4.226,4.226,0,0,0-.241-1.417A1.378,1.378,0,0,1,512.167,164.067Z" transform="translate(-503.379 -152.416)"/>
  <g id="Group_186" data-name="Group 186" transform="translate(16.706 8.069)">
    <path id="Path_481" data-name="Path 481" d="M600.6,155.249a8.178,8.178,0,0,1,1.051,4.069c0,3.905-2.58,7.071-5.762,7.071a5.312,5.312,0,0,1-4.187-2.216,5.531,5.531,0,0,0,4.71,3c3.182,0,5.762-3.166,5.762-7.071A7.968,7.968,0,0,0,600.6,155.249Z" transform="translate(-591.701 -155.249)" fill="#b3b3b3"/>
    <path id="Path_482" data-name="Path 482" d="M609.943,168.8c-.8,0-1.441-.879-1.441-1.964a2.649,2.649,0,0,1,.041-.463H608.5a3.282,3.282,0,1,0,2.619,3.214,3.833,3.833,0,0,0-.219-1.286A1.25,1.25,0,0,1,609.943,168.8Z" transform="translate(-603.792 -164.734)"/>
  </g>
  <path id="Path_483" data-name="Path 483" d="M573.073,156.242c1.168-.352,2.349-.606,3.534-.838s2.375-.415,3.568-.574,2.392-.284,3.6-.373a36.04,36.04,0,0,1,3.63-.105,36.052,36.052,0,0,1-3.534.84q-1.777.339-3.569.572t-3.6.372C575.5,156.218,574.293,156.279,573.073,156.242Z" transform="translate(-559.115 -146.405)"/>
</svg>
