<svg xmlns="http://www.w3.org/2000/svg" width="31.969" height="32.198" viewBox="0 0 31.969 32.198">
  <g id="Group_188" data-name="Group 188" transform="translate(0)">
    <path id="Path_484" data-name="Path 484" d="M789.64,108.192a7.7,7.7,0,0,1,2.176-1.213c.2-.065.4-.138.6-.2s.4-.115.61-.161.411-.088.619-.122.415-.067.623-.093l.626-.076.628-.062c.209-.011.419-.018.629-.014s.417.026.625.052a7.45,7.45,0,0,1,2.407.724l-.015.1a14.484,14.484,0,0,1-2.457.193c-.2,0-.4,0-.6-.008s-.4-.019-.595-.038l-.6-.045c-.2-.012-.4-.011-.6-.013s-.4.014-.6.021-.395.033-.593.049-.393.049-.591.072-.39.072-.586.107a8.192,8.192,0,0,0-2.261.809Z" transform="translate(-789.64 -106.221)"/>
    <path id="Path_485" data-name="Path 485" d="M951.526,107.868a14.311,14.311,0,0,0-2.3-.659c-.193-.044-.388-.073-.583-.1s-.39-.053-.585-.069-.39-.036-.585-.046-.391-.015-.586-.016a9.459,9.459,0,0,0-1.171.078c-.389.042-.778.073-1.173.078a12.611,12.611,0,0,1-2.438-.138l-.016-.1a7.771,7.771,0,0,1,2.359-.776,5.741,5.741,0,0,1,1.242-.072c.417.024.834.067,1.248.117.207.025.414.049.619.088s.41.07.613.119.4.1.6.159.4.116.591.189a12.349,12.349,0,0,1,2.214,1.059Z" transform="translate(-919.601 -106.039)"/>
    <path id="Path_486" data-name="Path 486" d="M958.013,295.877a3.734,3.734,0,0,0,.224-1.3,2.991,2.991,0,0,0-.316-1.3,2.56,2.56,0,0,0-.862-.983,4.693,4.693,0,0,1,.571,1.107,3.787,3.787,0,0,1,.2,1.181,5.526,5.526,0,0,1-.123,1.213c-.083.406-.2.809-.309,1.229A4.183,4.183,0,0,0,958.013,295.877Z" transform="translate(-932.367 -264.822)"/>
    <path id="Path_487" data-name="Path 487" d="M831.749,300.879a11.191,11.191,0,0,1,2.2-.4c.367-.034.734-.056,1.1-.065a7.808,7.808,0,0,1,1.1.032c.735.076,1.469.264,2.2.3a10.76,10.76,0,0,0,2.2-.132c.367-.053.734-.112,1.1-.149s.734-.06,1.1-.083c.734-.045,1.469-.091,2.2-.072s1.469.074,2.2.162a16.228,16.228,0,0,1,2.2.4V301a16.242,16.242,0,0,1-2.2.4q-1.1.132-2.2.163c-.734.019-1.469-.027-2.2-.072-.367-.023-.734-.04-1.1-.083s-.734-.1-1.1-.149a10.771,10.771,0,0,0-2.2-.132c-.735.035-1.469.223-2.2.3a7.772,7.772,0,0,1-1.1.032c-.367-.009-.734-.031-1.1-.065a11.171,11.171,0,0,1-2.2-.4Z" transform="translate(-825.539 -271.658)"/>
    <path id="Path_488" data-name="Path 488" d="M918.489,150.742l-8.3.15a9.534,9.534,0,0,0-1.558,5.37c0,4.339,2.58,7.857,5.762,7.857s5.762-3.518,5.762-7.857A9.467,9.467,0,0,0,918.489,150.742Z" transform="translate(-891.08 -144.149)"/>
    <path id="Path_489" data-name="Path 489" d="M918,150.8l-7.347.133a7.8,7.8,0,0,0-2.023,5.378c0,3.905,2.58,7.071,5.762,7.071s5.762-3.166,5.762-7.071A7.747,7.747,0,0,0,918,150.8Z" transform="translate(-891.08 -144.2)" fill="#fff"/>
    <path id="Path_490" data-name="Path 490" d="M818.521,141.473l-8.271.154h0a10.329,10.329,0,0,0-1.98,6.278c0,4.781,2.842,8.657,6.348,8.657s6.348-3.876,6.348-8.657a10.22,10.22,0,0,0-2.147-6.487Z" transform="translate(-805.523 -136.199)"/>
    <path id="Path_491" data-name="Path 491" d="M818.207,141.836l-7.334.136a8.449,8.449,0,0,0-2.6,6.289c0,4.3,2.842,7.791,6.348,7.791s6.348-3.488,6.348-7.791A8.392,8.392,0,0,0,818.207,141.836Z" transform="translate(-805.523 -136.557)" fill="#fff"/>
    <path id="Path_492" data-name="Path 492" d="M825.926,149.133a9.013,9.013,0,0,1,1.158,4.484c0,4.3-2.842,7.791-6.348,7.791a5.852,5.852,0,0,1-4.613-2.442,6.094,6.094,0,0,0,5.19,3.307c3.506,0,6.348-3.488,6.348-7.791A8.781,8.781,0,0,0,825.926,149.133Z" transform="translate(-812.217 -142.777)" fill="#b3b3b3"/>
    <path id="Path_493" data-name="Path 493" d="M836.221,164.067c-.876,0-1.587-.969-1.587-2.164a2.919,2.919,0,0,1,.045-.51h-.045c-1.594,0-2.885,1.586-2.885,3.541s1.292,3.541,2.885,3.541,2.886-1.586,2.886-3.541a4.223,4.223,0,0,0-.241-1.417A1.377,1.377,0,0,1,836.221,164.067Z" transform="translate(-825.539 -153.228)"/>
    <path id="Path_494" data-name="Path 494" d="M924.652,155.249a8.178,8.178,0,0,1,1.051,4.069c0,3.905-2.58,7.071-5.762,7.071a5.311,5.311,0,0,1-4.187-2.216,5.531,5.531,0,0,0,4.71,3c3.182,0,5.762-3.166,5.762-7.071A7.968,7.968,0,0,0,924.652,155.249Z" transform="translate(-897.156 -147.991)" fill="#b3b3b3"/>
    <path id="Path_495" data-name="Path 495" d="M934,168.8c-.8,0-1.44-.879-1.44-1.964a2.649,2.649,0,0,1,.041-.463h-.041a3.282,3.282,0,1,0,2.619,3.214,3.836,3.836,0,0,0-.219-1.286A1.25,1.25,0,0,1,934,168.8Z" transform="translate(-909.247 -157.477)"/>
    <path id="Path_496" data-name="Path 496" d="M802.33,140.179c1.2-.222,2.4-.345,3.6-.446s2.406-.152,3.61-.178,2.409-.02,3.614.024a36.025,36.025,0,0,1,3.62.294,36.028,36.028,0,0,1-3.6.447q-1.8.142-3.61.177t-3.614-.025C804.744,140.422,803.538,140.35,802.33,140.179Z" transform="translate(-800.458 -134.599)"/>
    <path id="Path_497" data-name="Path 497" d="M897.171,149.12c1.2-.222,2.4-.345,3.6-.446s2.406-.152,3.61-.178,2.409-.02,3.614.024a36.034,36.034,0,0,1,3.62.293,36.028,36.028,0,0,1-3.6.447q-1.8.142-3.61.177t-3.614-.025C899.585,149.363,898.379,149.291,897.171,149.12Z" transform="translate(-881.312 -142.221)"/>
  </g>
</svg>
