<svg xmlns="http://www.w3.org/2000/svg" width="31.266" height="35.937" viewBox="0 0 31.266 35.937">
  <g id="Group_181" data-name="Group 181" transform="translate(0)">
    <g id="Group_177" data-name="Group 177" transform="translate(2.384 3.676)">
      <ellipse id="Ellipse_2" data-name="Ellipse 2" cx="6.348" cy="8.657" rx="6.348" ry="8.657"/>
      <ellipse id="Ellipse_3" data-name="Ellipse 3" cx="6.348" cy="7.791" rx="6.348" ry="7.791" transform="translate(0 0.866)" fill="#fff"/>
      <path id="Path_445" data-name="Path 445" d="M1491.409,149.133a9.011,9.011,0,0,1,1.158,4.484c0,4.3-2.842,7.791-6.348,7.791a5.852,5.852,0,0,1-4.613-2.442,6.094,6.094,0,0,0,5.19,3.307c3.506,0,6.348-3.488,6.348-7.791A8.78,8.78,0,0,0,1491.409,149.133Z" transform="translate(-1480.448 -145.826)" fill="#b3b3b3"/>
      <path id="Path_446" data-name="Path 446" d="M1501.706,164.067c-.877,0-1.587-.969-1.587-2.164a2.955,2.955,0,0,1,.045-.51h-.045c-1.593,0-2.885,1.586-2.885,3.541s1.292,3.541,2.885,3.541,2.886-1.586,2.886-3.541a4.232,4.232,0,0,0-.241-1.417A1.377,1.377,0,0,1,1501.706,164.067Z" transform="translate(-1493.77 -156.276)"/>
    </g>
    <path id="Path_447" data-name="Path 447" d="M1457.592,105.726a7.7,7.7,0,0,1,1.745-1.778c.172-.118.342-.245.519-.357s.356-.224.539-.327.37-.2.559-.291.379-.182.572-.265l.579-.249.585-.236c.2-.069.4-.136.6-.191s.408-.092.614-.126a7.448,7.448,0,0,1,2.514.016l.014.1a14.477,14.477,0,0,1-2.3.878c-.191.06-.382.115-.576.16s-.386.093-.581.131l-.584.125c-.194.044-.384.1-.576.155s-.376.126-.565.188-.369.143-.556.214-.363.158-.547.236-.354.179-.532.268a8.183,8.183,0,0,0-1.941,1.413Z" transform="translate(-1457.592 -101.803)"/>
    <g id="Group_178" data-name="Group 178" transform="translate(17.184 4.884)">
      <ellipse id="Ellipse_4" data-name="Ellipse 4" cx="5.762" cy="7.857" rx="5.762" ry="7.857"/>
      <ellipse id="Ellipse_5" data-name="Ellipse 5" cx="5.762" cy="7.071" rx="5.762" ry="7.071" transform="translate(0 0.786)" fill="#fff"/>
      <path id="Path_448" data-name="Path 448" d="M1590.136,155.249a8.179,8.179,0,0,1,1.051,4.069c0,3.905-2.579,7.071-5.761,7.071a5.312,5.312,0,0,1-4.187-2.216,5.531,5.531,0,0,0,4.711,3c3.182,0,5.762-3.166,5.762-7.071A7.967,7.967,0,0,0,1590.136,155.249Z" transform="translate(-1580.188 -152.247)" fill="#b3b3b3"/>
      <path id="Path_449" data-name="Path 449" d="M1599.48,168.8c-.8,0-1.44-.879-1.44-1.964a2.649,2.649,0,0,1,.041-.463h-.041a3.282,3.282,0,1,0,2.619,3.214,3.836,3.836,0,0,0-.219-1.286A1.25,1.25,0,0,1,1599.48,168.8Z" transform="translate(-1592.278 -161.732)"/>
    </g>
    <path id="Path_450" data-name="Path 450" d="M1618.436,105.58a14.305,14.305,0,0,0-2.014-1.3c-.172-.1-.35-.183-.529-.265s-.358-.163-.54-.236-.363-.148-.547-.214-.37-.127-.556-.185a9.456,9.456,0,0,0-1.143-.265c-.384-.073-.766-.156-1.145-.266a12.6,12.6,0,0,1-2.293-.839l.014-.1a7.777,7.777,0,0,1,2.482-.059,5.742,5.742,0,0,1,1.209.291c.393.144.778.306,1.161.474.191.084.382.167.567.264s.373.186.552.292.359.209.531.326.346.226.51.352a12.357,12.357,0,0,1,1.812,1.655Z" transform="translate(-1587.24 -101.78)"/>
    <path id="Path_451" data-name="Path 451" d="M1503.975,268.1a11.949,11.949,0,0,1-2.312.8,18.062,18.062,0,0,1-2.416.42,23.177,23.177,0,0,1-4.908.01,27.555,27.555,0,0,1-4.818-.933c-.786-.227-1.562-.488-2.322-.791a14.385,14.385,0,0,1-2.2-1.081l.074-.113a3.2,3.2,0,0,1,.921,1.069,11.3,11.3,0,0,1,.629,1.252c.372.854.7,1.724,1.045,2.581l-.1-.092q1.553.364,3.122.648c1.045.191,2.095.352,3.149.473s2.11.212,3.169.252,2.117.034,3.173-.021l-.145.087c.33-.5.659-1,1.014-1.487a16.632,16.632,0,0,1,1.14-1.4,9.717,9.717,0,0,1,1.329-1.222,7.4,7.4,0,0,1,1.556-.9l.021.051Zm-.016-.038,1.109-.421.021.051a6.466,6.466,0,0,0-1.5.946,9.459,9.459,0,0,0-1.243,1.268,16.419,16.419,0,0,0-1.042,1.441c-.326.5-.642,1-.952,1.511l-.047.078-.1.009a25.814,25.814,0,0,1-3.218.079q-1.608-.061-3.2-.268c-1.062-.138-2.118-.314-3.168-.522s-2.09-.455-3.124-.726l-.078-.02-.026-.071c-.318-.873-.606-1.754-.948-2.611a10.755,10.755,0,0,0-.578-1.251,3.067,3.067,0,0,0-.864-1.033l.074-.113a11.858,11.858,0,0,0,2.179,1.068,19.706,19.706,0,0,0,2.329.707,35.269,35.269,0,0,0,4.8.781,32.84,32.84,0,0,0,4.855.145A12.731,12.731,0,0,0,1503.959,268.059Z" transform="translate(-1480.954 -242.124)"/>
    <g id="Group_179" data-name="Group 179" transform="translate(0.696 20.888)">
      <path id="Path_452" data-name="Path 452" d="M1638.164,253.313a3.742,3.742,0,0,0-.267-1.3,3,3,0,0,0-.767-1.094,2.564,2.564,0,0,0-1.161-.6,4.69,4.69,0,0,1,.935.823,3.8,3.8,0,0,1,.617,1.027,5.576,5.576,0,0,1,.327,1.174c.071.408.11.826.16,1.257A4.177,4.177,0,0,0,1638.164,253.313Z" transform="translate(-1610.358 -249.302)"/>
      <path id="Path_453" data-name="Path 453" d="M1489.362,246.087a24.654,24.654,0,0,1-6.436,2.548,26.227,26.227,0,0,1-3.4.61,33.145,33.145,0,0,1-3.469.175,17.49,17.49,0,0,1-3.469-.359c-.285-.06-.567-.134-.849-.2s-.558-.166-.837-.249-.552-.184-.827-.274-.544-.2-.818-.3-.541-.208-.814-.3l-.811-.31c-.538-.212-1.072-.437-1.6-.669-1.039-.458-2.054-.97-3.07-1.5a3.794,3.794,0,0,1,.614-1.021,4.683,4.683,0,0,1,.934-.823,2.561,2.561,0,0,0-1.161.6,2.993,2.993,0,0,0-.768,1.094,3.743,3.743,0,0,0-.267,1.3,4.191,4.191,0,0,0,.157,1.289c.05-.431.089-.849.16-1.257a5.7,5.7,0,0,1,.3-1.109,17.506,17.506,0,0,0,2.894,1.859l.24.119a5.871,5.871,0,0,1,.633,1.163c.25.586.461,1.192.675,1.8s.425,1.221.655,1.829a17.893,17.893,0,0,0,.779,1.8,10.461,10.461,0,0,0,2.352,3.138,5.6,5.6,0,0,0,3.61,1.427,4.637,4.637,0,0,0,1.979-.364,5.669,5.669,0,0,0,1.671-1.136,16.122,16.122,0,0,0,2.39-3.132c.682-1.1,1.337-2.2,2.11-3.213a9.816,9.816,0,0,1,1.8-1.854,16.294,16.294,0,0,0,4.677-2.619Z" transform="translate(-1462.309 -243.409)"/>
    </g>
    <path id="Path_454" data-name="Path 454" d="M1498.421,276.346c1.054.119,2.11.212,3.169.251.974.045,1.949.035,2.922-.01a22.1,22.1,0,0,1,1.964-2.671,9.827,9.827,0,0,1,1.353-1.268q-.405.126-.815.234a19.53,19.53,0,0,1-3.509.551,18.66,18.66,0,0,1-2.418.025c-.721-.008-1.442-.05-2.159-.123a27.407,27.407,0,0,1-4.6-.873l-.442-.1c-.287-.07-.572-.146-.856-.224a17.039,17.039,0,0,1-1.668-.592c-.272-.113-.541-.236-.812-.354l-.168-.08a6.127,6.127,0,0,1,.539.828,16.756,16.756,0,0,1,.826,1.776c.215.52.417,1.042.622,1.561q1.447.333,2.906.6C1496.317,276.064,1497.367,276.225,1498.421,276.346Z" transform="translate(-1485.543 -246.136)" fill="#fff"/>
    <path id="Path_455" data-name="Path 455" d="M1529.555,320.518c0,1.07-1.506,1.937-3.364,1.937s-3.364-.867-3.364-1.937a1.607,1.607,0,0,1,1.483-1.606c.862-.025,1.184.587,1.881.587s1.427-.408,2.243-.408C1529.394,319.091,1529.555,319.849,1529.555,320.518Z" transform="translate(-1513.206 -286.888)" fill="red"/>
    <path id="Path_456" data-name="Path 456" d="M1528.963,319.394a1.537,1.537,0,0,1-.422.991,3.066,3.066,0,0,1-.882.668,4.211,4.211,0,0,1-2.156.445,5.4,5.4,0,0,1-2.117-.563,2.933,2.933,0,0,1-.883-.652,1.742,1.742,0,0,1-.3-.476,1.4,1.4,0,0,1-.086-.572,1.854,1.854,0,0,1,.424-1.065,1.564,1.564,0,0,1,1.037-.564,1.749,1.749,0,0,1,.6.029,2.344,2.344,0,0,1,.55.209c.167.083.317.172.463.231a1.06,1.06,0,0,0,.438.08,4.862,4.862,0,0,0,1.009-.183,3.889,3.889,0,0,1,1.105-.138,1.545,1.545,0,0,1,.567.117.968.968,0,0,1,.434.378,1.43,1.43,0,0,1,.183.522A2.928,2.928,0,0,1,1528.963,319.394Zm-.041,0a1.635,1.635,0,0,0-.271-1,.756.756,0,0,0-.407-.267,1.324,1.324,0,0,0-.495-.024,5.639,5.639,0,0,0-1.01.248,4.465,4.465,0,0,1-1.1.239,1.449,1.449,0,0,1-.614-.112,4.57,4.57,0,0,1-.5-.258,1.513,1.513,0,0,0-.915-.233,1.492,1.492,0,0,0-1.278,1.271,1.2,1.2,0,0,0,.03.491,1.322,1.322,0,0,0,.244.445,2.3,2.3,0,0,0,.836.622,3.71,3.71,0,0,0,1.015.286,5.537,5.537,0,0,0,1.049.057,6.871,6.871,0,0,0,2.049-.34,2.754,2.754,0,0,0,.91-.507A1.267,1.267,0,0,0,1528.922,319.394Z" transform="translate(-1512.594 -285.764)"/>
    <g id="Group_180" data-name="Group 180" transform="translate(6.962 29.49)">
      <path id="Path_457" data-name="Path 457" d="M1515.425,304.8c.361-.523.71-1.06,1.056-1.605l.06-.092c-.89.06-1.782.061-2.672.036q-1.608-.061-3.2-.268c-1.062-.138-2.118-.314-3.168-.522-.9-.179-1.8-.388-2.7-.616.226.558.45,1.115.689,1.663a13.558,13.558,0,0,0,.851,1.71,8.845,8.845,0,0,0,.532.792c.091.132.2.244.306.365a3.961,3.961,0,0,0,.334.34,5.017,5.017,0,0,0,.436.36,2.317,2.317,0,0,1-.2-.2,1.738,1.738,0,0,1-.3-.476,1.391,1.391,0,0,1-.086-.572,1.854,1.854,0,0,1,.424-1.065,1.563,1.563,0,0,1,1.037-.564,1.745,1.745,0,0,1,.6.029,2.343,2.343,0,0,1,.55.209c.167.083.317.172.463.231a1.057,1.057,0,0,0,.438.08,4.853,4.853,0,0,0,1.009-.183,3.9,3.9,0,0,1,1.105-.138,1.547,1.547,0,0,1,.567.117.969.969,0,0,1,.434.378,1.426,1.426,0,0,1,.183.522,2.95,2.95,0,0,1,.038.542,1.392,1.392,0,0,1-.13.553c.054-.052.109-.1.161-.158A10.928,10.928,0,0,0,1515.425,304.8Z" transform="translate(-1504.801 -301.736)" fill="#4d4d4d"/>
    </g>
    <path id="Path_458" data-name="Path 458" d="M1538.1,318.9a3.97,3.97,0,0,1,1.523,1.083,4.273,4.273,0,0,1,.793,1.646,4.166,4.166,0,0,0-.943-1.508,3.666,3.666,0,0,0-1.513-.839Z" transform="translate(-1526.112 -286.88)"/>
    <path id="Path_459" data-name="Path 459" d="M1524.837,320.239a1.492,1.492,0,0,0-1.278,1.271,1.191,1.191,0,0,0,.03.491,1.32,1.32,0,0,0,.244.445,2.3,2.3,0,0,0,.835.622,3.712,3.712,0,0,0,1.015.286,5.537,5.537,0,0,0,1.049.057,6.866,6.866,0,0,0,2.049-.34,2.75,2.75,0,0,0,.91-.507,1.268,1.268,0,0,0,.456-.918,1.637,1.637,0,0,0-.271-1,.757.757,0,0,0-.408-.267,1.324,1.324,0,0,0-.495-.024,5.649,5.649,0,0,0-1.01.248,5.236,5.236,0,0,1-.907.221,3.178,3.178,0,0,1,.279.3,4.266,4.266,0,0,1,.793,1.646,4.167,4.167,0,0,0-.943-1.508,3.049,3.049,0,0,0-.563-.428,1.5,1.5,0,0,1-.373-.1,4.621,4.621,0,0,1-.5-.258A1.513,1.513,0,0,0,1524.837,320.239Z" transform="translate(-1513.819 -288.016)" fill="red"/>
  </g>
</svg>
