<svg xmlns="http://www.w3.org/2000/svg" width="31.667" height="32.234" viewBox="0 0 31.667 32.234">
  <g id="Group_185" data-name="Group 185" transform="translate(0)">
    <g id="Group_182" data-name="Group 182" transform="translate(2.567 3.363)">
      <ellipse id="Ellipse_6" data-name="Ellipse 6" cx="6.348" cy="8.657" rx="6.348" ry="8.657"/>
      <ellipse id="Ellipse_7" data-name="Ellipse 7" cx="6.348" cy="7.791" rx="6.348" ry="7.791" transform="translate(0 0.866)" fill="#fff"/>
      <path id="Path_460" data-name="Path 460" d="M1164.29,149.133a9.011,9.011,0,0,1,1.158,4.484c0,4.3-2.843,7.791-6.348,7.791a5.853,5.853,0,0,1-4.613-2.442,6.094,6.094,0,0,0,5.19,3.307c3.506,0,6.348-3.488,6.348-7.791A8.779,8.779,0,0,0,1164.29,149.133Z" transform="translate(-1153.329 -145.826)" fill="#b3b3b3"/>
      <path id="Path_461" data-name="Path 461" d="M1174.585,164.067c-.876,0-1.587-.969-1.587-2.164a2.9,2.9,0,0,1,.045-.51H1173c-1.594,0-2.885,1.586-2.885,3.541s1.292,3.541,2.885,3.541,2.885-1.586,2.885-3.541a4.223,4.223,0,0,0-.241-1.417A1.377,1.377,0,0,1,1174.585,164.067Z" transform="translate(-1166.651 -156.276)"/>
    </g>
    <path id="Path_462" data-name="Path 462" d="M1129.229,107.023a7.7,7.7,0,0,1,1.928-1.577c.184-.1.366-.206.555-.3s.378-.184.572-.266.389-.159.587-.229.4-.139.6-.2l.6-.185.607-.171c.2-.047.409-.092.616-.124s.415-.047.624-.058a7.455,7.455,0,0,1,2.5.289l0,.1a14.478,14.478,0,0,1-2.385.622c-.2.039-.392.073-.59.1s-.394.051-.592.067l-.594.06c-.2.023-.392.059-.589.092s-.388.084-.582.125-.383.1-.575.152-.379.117-.569.175-.371.139-.559.208a8.186,8.186,0,0,0-2.083,1.194Z" transform="translate(-1129.229 -103.907)"/>
    <g id="Group_183" data-name="Group 183" transform="translate(17.368 4.57)">
      <ellipse id="Ellipse_8" data-name="Ellipse 8" cx="5.762" cy="7.857" rx="5.762" ry="7.857"/>
      <ellipse id="Ellipse_9" data-name="Ellipse 9" cx="5.762" cy="7.071" rx="5.762" ry="7.071" transform="translate(0 0.786)" fill="#fff"/>
      <path id="Path_463" data-name="Path 463" d="M1263.017,155.249a8.179,8.179,0,0,1,1.051,4.069c0,3.905-2.579,7.071-5.762,7.071a5.312,5.312,0,0,1-4.187-2.216,5.532,5.532,0,0,0,4.711,3c3.182,0,5.762-3.166,5.762-7.071A7.969,7.969,0,0,0,1263.017,155.249Z" transform="translate(-1253.069 -152.247)" fill="#b3b3b3"/>
      <path id="Path_464" data-name="Path 464" d="M1272.361,168.8c-.8,0-1.441-.879-1.441-1.964a2.661,2.661,0,0,1,.041-.463h-.041a3.282,3.282,0,1,0,2.619,3.214,3.833,3.833,0,0,0-.218-1.286A1.25,1.25,0,0,1,1272.361,168.8Z" transform="translate(-1265.159 -161.732)"/>
    </g>
    <path id="Path_465" data-name="Path 465" d="M1290.415,107.059a14.3,14.3,0,0,0-2.181-.993c-.184-.072-.373-.13-.562-.186s-.378-.11-.568-.155-.381-.094-.572-.132-.385-.073-.577-.1a9.473,9.473,0,0,0-1.169-.1c-.391-.016-.78-.043-1.172-.1a12.609,12.609,0,0,1-2.391-.5v-.1a7.774,7.774,0,0,1,2.448-.418,5.743,5.743,0,0,1,1.238.113c.409.086.815.19,1.217.3.2.056.4.11.6.179s.4.13.588.209.385.155.572.246.376.174.556.275a12.33,12.33,0,0,1,2.032,1.375Z" transform="translate(-1258.806 -104.222)"/>
    <path id="Path_466" data-name="Path 466" d="M1176.856,277.351a11.929,11.929,0,0,1-2.312.8,18.044,18.044,0,0,1-2.416.42,23.182,23.182,0,0,1-4.908.01,27.561,27.561,0,0,1-4.818-.933c-.786-.227-1.562-.488-2.322-.791a14.352,14.352,0,0,1-2.2-1.081l.074-.113a3.207,3.207,0,0,1,.92,1.069,11.207,11.207,0,0,1,.628,1.252c.372.854.7,1.724,1.046,2.581l-.1-.092q1.553.364,3.122.648c1.045.191,2.095.352,3.148.473s2.11.212,3.169.251,2.117.034,3.173-.021l-.145.087c.33-.5.659-1,1.014-1.487a16.6,16.6,0,0,1,1.14-1.4,9.721,9.721,0,0,1,1.329-1.222,7.387,7.387,0,0,1,1.555-.9l.021.051Zm-.016-.037,1.109-.421.02.051a6.471,6.471,0,0,0-1.5.946,9.465,9.465,0,0,0-1.243,1.268,16.3,16.3,0,0,0-1.042,1.441c-.326.5-.642,1-.952,1.511l-.047.078-.1.009a25.815,25.815,0,0,1-3.218.079q-1.608-.061-3.2-.268c-1.062-.138-2.118-.314-3.168-.522s-2.09-.455-3.124-.726l-.078-.02-.026-.071c-.318-.873-.606-1.754-.948-2.611a10.691,10.691,0,0,0-.578-1.251,3.068,3.068,0,0,0-.864-1.033l.074-.113a11.842,11.842,0,0,0,2.179,1.069,19.649,19.649,0,0,0,2.329.707,35.3,35.3,0,0,0,4.8.781,32.854,32.854,0,0,0,4.855.145A12.731,12.731,0,0,0,1176.84,277.314Z" transform="translate(-1153.651 -250.328)"/>
    <g id="Group_184" data-name="Group 184" transform="translate(0.879 21.939)">
      <path id="Path_467" data-name="Path 467" d="M1311.045,262.568a3.726,3.726,0,0,0-.267-1.3,2.99,2.99,0,0,0-.768-1.094,2.559,2.559,0,0,0-1.161-.6,4.682,4.682,0,0,1,.935.823,3.79,3.79,0,0,1,.617,1.027,5.52,5.52,0,0,1,.327,1.174c.071.408.11.826.16,1.257A4.177,4.177,0,0,0,1311.045,262.568Z" transform="translate(-1283.239 -258.557)"/>
      <path id="Path_468" data-name="Path 468" d="M1162.243,255.342a24.656,24.656,0,0,1-6.436,2.548,26.272,26.272,0,0,1-3.4.61,33.172,33.172,0,0,1-3.469.175,17.492,17.492,0,0,1-3.468-.359c-.285-.06-.567-.134-.849-.2s-.558-.166-.837-.249-.552-.184-.827-.274-.544-.2-.818-.3-.541-.208-.814-.3l-.811-.31c-.538-.212-1.072-.437-1.6-.669-1.039-.458-2.054-.97-3.07-1.5a3.8,3.8,0,0,1,.614-1.021,4.692,4.692,0,0,1,.935-.823,2.561,2.561,0,0,0-1.161.6,3,3,0,0,0-.768,1.094,3.741,3.741,0,0,0-.267,1.3,4.184,4.184,0,0,0,.157,1.289c.05-.431.089-.849.16-1.257a5.689,5.689,0,0,1,.3-1.109,17.524,17.524,0,0,0,2.894,1.859l.24.119a5.836,5.836,0,0,1,.632,1.163c.25.586.462,1.192.675,1.8s.424,1.221.655,1.829,12.312,2.35,13,1.257a29.232,29.232,0,0,1,1.889-2.742,9.813,9.813,0,0,1,1.8-1.854,16.3,16.3,0,0,0,4.677-2.619Z" transform="translate(-1135.19 -252.664)"/>
    </g>
    <path id="Path_469" data-name="Path 469" d="M1171.3,285.6c1.054.119,2.11.212,3.169.251.974.045,1.949.035,2.922-.009a22.127,22.127,0,0,1,1.964-2.671,9.844,9.844,0,0,1,1.353-1.268q-.405.126-.815.234a19.531,19.531,0,0,1-3.509.551,18.649,18.649,0,0,1-2.418.025q-1.082-.012-2.16-.124a27.42,27.42,0,0,1-4.6-.873l-.442-.1c-.286-.07-.571-.146-.856-.224a16.981,16.981,0,0,1-1.668-.592c-.273-.113-.541-.236-.812-.354l-.168-.08a6.138,6.138,0,0,1,.538.828,16.69,16.69,0,0,1,.826,1.776c.215.52.417,1.043.622,1.562q1.447.333,2.906.6C1169.2,285.319,1170.248,285.48,1171.3,285.6Z" transform="translate(-1158.241 -254.34)" fill="#fff"/>
  </g>
</svg>
