<svg xmlns="http://www.w3.org/2000/svg" width="240.198" height="160.141" viewBox="0 0 240.198 160.141">
  <g id="Group_194" data-name="Group 194" transform="translate(-686.806 -215.605)">
    <g id="Group_192" data-name="Group 192" transform="translate(697.673 215.605)">
      <path id="Path_546" data-name="Path 546" d="M912.547,375.746H753.321a60.4,60.4,0,0,1-60.328-60.328V272.327h1.762a22.247,22.247,0,1,0,.044-44.494h-1.756l-.049-1.753V215.6H852.218a60.4,60.4,0,0,1,60.33,60.33v42.574h-1.756a22.249,22.249,0,0,0,0,44.5h1.756ZM696.506,275.788v39.63a56.879,56.879,0,0,0,56.816,56.815H909.035V366.46a25.762,25.762,0,0,1,0-51.4V275.935a56.882,56.882,0,0,0-56.817-56.817H696.506v5.264a25.759,25.759,0,0,1,0,51.406Z" transform="translate(-692.993 -215.605)"/>
    </g>
    <g id="Group_193" data-name="Group 193" transform="translate(686.806 238.739)">
      <path id="Path_547" data-name="Path 547" d="M693.171,238.847H697.1v9.687H686.806V239.4l5.036-10.626H697.1Zm12.674,0h3.927v9.687H699.479V239.4l5.037-10.626h5.257Z" transform="translate(-686.806 -228.776)"/>
      <path id="Path_548" data-name="Path 548" d="M820.777,290.367l-5.037,10.625h-5.257l3.931-10.073h-3.931v-9.685h10.294Zm12.673,0-5.036,10.625h-5.255l3.929-10.073h-3.929v-9.685H833.45Z" transform="translate(-593.252 -189.095)"/>
    </g>
  </g>
</svg>
