<svg id="Group_189" data-name="Group 189" xmlns="http://www.w3.org/2000/svg" width="26.898" height="36.221" viewBox="0 0 26.898 36.221">
  <path id="Path_498" data-name="Path 498" d="M212.595,291.322c2.055-1.321,5.816-3.167,9.374-3s5.282,3.813,5.282,3.813a68.629,68.629,0,0,0-7.328-1.145c-1.524.026-7.7.689-7.916.819S212.595,291.322,212.595,291.322Z" transform="translate(-207.168 -259.766)" fill="#fff"/>
  <path id="Path_499" data-name="Path 499" d="M329.152,305.132a3.738,3.738,0,0,0,.224-1.3,2.993,2.993,0,0,0-.316-1.3,2.561,2.561,0,0,0-.862-.983,4.693,4.693,0,0,1,.571,1.107,3.788,3.788,0,0,1,.2,1.181,5.543,5.543,0,0,1-.123,1.213c-.083.406-.2.809-.309,1.229A4.184,4.184,0,0,0,329.152,305.132Z" transform="translate(-306.254 -271.048)"/>
  <path id="Path_500" data-name="Path 500" d="M297.248,104.42a14.306,14.306,0,0,0-2.373.33c-.194.038-.385.09-.574.144s-.378.11-.563.173-.371.125-.554.195-.363.145-.543.223a9.452,9.452,0,0,0-1.039.545c-.339.2-.682.382-1.041.546a12.6,12.6,0,0,1-2.286.86l-.055-.086a7.772,7.772,0,0,1,1.843-1.664,5.755,5.755,0,0,1,1.106-.568c.392-.147.79-.276,1.188-.4.2-.061.4-.123.6-.17s.4-.1.609-.139.408-.076.615-.1.41-.055.617-.066a12.34,12.34,0,0,1,2.452.072Z" transform="translate(-272.172 -102.821)"/>
  <path id="Path_501" data-name="Path 501" d="M206.4,306.7a3.271,3.271,0,0,1,.855-.639,6.8,6.8,0,0,1,.979-.416,9.2,9.2,0,0,1,1.018-.286,8.229,8.229,0,0,1,1.038-.175c.7-.074,1.4-.057,2.095-.095s1.386-.1,2.082-.163a16.95,16.95,0,0,1,2.1-.076,15.815,15.815,0,0,1,2.1.165,10.676,10.676,0,0,1,2.054.523,5.971,5.971,0,0,1,.967.458,3.406,3.406,0,0,1,.435.319,1.952,1.952,0,0,1,.2.182c.06.067.116.137.173.2l-.042.04a5.034,5.034,0,0,0-1.866-.763,19.594,19.594,0,0,0-2.007-.346c-.675-.091-1.355-.172-2.039-.23l-2.061-.156a12.147,12.147,0,0,0-2.071.032,18.757,18.757,0,0,0-2.034.386c-.671.141-1.343.258-2.005.415-.167.037-.329.082-.494.124s-.324.1-.489.142a5.827,5.827,0,0,0-.94.4Z" transform="translate(-202.418 -273.865)"/>
  <path id="Path_502" data-name="Path 502" d="M289.015,145.761l-8.743,3.04a10.294,10.294,0,0,0-.5,3.214c0,4.339,2.58,7.857,5.762,7.857s5.762-3.518,5.762-7.857A9.064,9.064,0,0,0,289.015,145.761Z" transform="translate(-264.966 -138.239)"/>
  <path id="Path_503" data-name="Path 503" d="M288.485,147.012l-8.066,2.8a8.349,8.349,0,0,0-.652,3.265c0,3.905,2.58,7.071,5.762,7.071s5.762-3.166,5.762-7.071A7.5,7.5,0,0,0,288.485,147.012Z" transform="translate(-264.966 -139.305)" fill="#fff"/>
  <path id="Path_504" data-name="Path 504" d="M191.777,139.271l-9.12-5.084a9.514,9.514,0,0,0-3.248,7.554c0,4.781,2.842,8.656,6.348,8.656s6.348-3.876,6.348-8.656a11.6,11.6,0,0,0-.27-2.5Z" transform="translate(-179.409 -128.372)"/>
  <path id="Path_505" data-name="Path 505" d="M191.777,141.373l-8.468-4.72a7.977,7.977,0,0,0-3.9,7.19c0,4.3,2.842,7.791,6.348,7.791s6.348-3.488,6.348-7.791a9.4,9.4,0,0,0-.328-2.47Z" transform="translate(-179.409 -130.474)" fill="#fff"/>
  <path id="Path_506" data-name="Path 506" d="M198.043,167.035a9.47,9.47,0,0,1,.18,1.843c0,4.3-2.842,7.791-6.348,7.791a5.852,5.852,0,0,1-4.613-2.442,6.1,6.1,0,0,0,5.19,3.307c3.506,0,6.348-3.488,6.348-7.791a9.386,9.386,0,0,0-.328-2.47Z" transform="translate(-186.104 -156.375)" fill="#b3b3b3"/>
  <path id="Path_507" data-name="Path 507" d="M183.584,124.239c1.147.415,2.247.916,3.335,1.437s2.153,1.084,3.205,1.67,2.088,1.2,3.107,1.847a36.036,36.036,0,0,1,2.975,2.083,36.024,36.024,0,0,1-3.336-1.436q-1.628-.789-3.2-1.671t-3.106-1.848C185.545,125.668,184.54,125,183.584,124.239Z" transform="translate(-182.968 -119.891)"/>
  <path id="Path_508" data-name="Path 508" d="M269.372,143.77c1.071-.585,2.174-1.078,3.285-1.549s2.238-.9,3.374-1.3,2.282-.771,3.441-1.106a36.068,36.068,0,0,1,3.531-.851,35.993,35.993,0,0,1-3.285,1.55q-1.669.7-3.374,1.3t-3.441,1.1C271.741,143.247,270.573,143.555,269.372,143.77Z" transform="translate(-256.104 -132.447)"/>
  <path id="Path_509" data-name="Path 509" d="M190.19,198.549a4.453,4.453,0,0,1,.381-.561c.071-.089.134-.173.22-.263a.486.486,0,0,1,.165-.117.549.549,0,0,1,.2-.039c.062,0,.119.006.173.008a.73.73,0,0,0,.153-.008c.107-.014.215-.037.324-.06a3.473,3.473,0,0,0,.64-.187,2.125,2.125,0,0,1-.608.3,2.871,2.871,0,0,1-.329.1.878.878,0,0,1-.181.025c-.059,0-.114,0-.163.008a.329.329,0,0,0-.237.106c-.07.071-.15.161-.228.238A4.44,4.44,0,0,1,190.19,198.549Z" transform="translate(-188.6 -182.197)" fill="#ed1c24"/>
  <path id="Path_510" data-name="Path 510" d="M192.274,191.427c-.134-.147-.242-.271-.369-.386s-.256-.217-.412-.34a.741.741,0,0,1,.781.726Z" transform="translate(-189.711 -176.547)" fill="#ed1c24"/>
  <path id="Path_511" data-name="Path 511" d="M189.214,175.9a.615.615,0,0,0-.3-.082c-.107-.008-.214-.01-.32-.008a2.379,2.379,0,0,0-.312.024c-.1.021-.206.052-.319.071a.846.846,0,0,1-.359-.007,3.161,3.161,0,0,1-.311-.113,1.43,1.43,0,0,0-.62-.071.941.941,0,0,1,.666-.09c.114.027.215.066.309.087a.87.87,0,0,0,.289.006c.1-.012.21-.031.324-.04a1.876,1.876,0,0,1,.339.01,2.116,2.116,0,0,1,.328.059A.554.554,0,0,1,189.214,175.9Z" transform="translate(-185.597 -163.674)" fill="#ed1c24"/>
  <path id="Path_512" data-name="Path 512" d="M193.171,166.306a5.139,5.139,0,0,0,.4.69,5.24,5.24,0,0,0,.518.608,1.324,1.324,0,0,1-.921-1.3Z" transform="translate(-191.139 -155.754)" fill="#ed1c24"/>
  <path id="Path_513" data-name="Path 513" d="M204.955,148.027a3.655,3.655,0,0,0-.14-.766q-.1-.374-.227-.744c-.162-.494-.34-.983-.5-1.487a5.7,5.7,0,0,1,.689,1.426,5.026,5.026,0,0,1,.19.774A2.01,2.01,0,0,1,204.955,148.027Z" transform="translate(-200.446 -137.616)" fill="#ed1c24"/>
  <path id="Path_514" data-name="Path 514" d="M199.981,154.287a1.529,1.529,0,0,1-.57.066,1.51,1.51,0,0,1-.559-.129,1.513,1.513,0,0,1,.57-.066A1.529,1.529,0,0,1,199.981,154.287Z" transform="translate(-195.984 -145.395)" fill="#ed1c24"/>
  <path id="Path_515" data-name="Path 515" d="M218.817,154.249a3.567,3.567,0,0,1-.1-.639,2.142,2.142,0,0,1,.009-.325.891.891,0,0,1,.088-.323,3.454,3.454,0,0,1,.1.639,2.142,2.142,0,0,1-.009.325A.9.9,0,0,1,218.817,154.249Z" transform="translate(-212.921 -144.378)" fill="#ed1c24"/>
  <path id="Path_516" data-name="Path 516" d="M247.831,180.975a1.5,1.5,0,0,1,1.376.292c-.247-.027-.467-.081-.692-.126S248.067,181.05,247.831,180.975Z" transform="translate(-237.74 -168.208)" fill="#ed1c24"/>
  <path id="Path_517" data-name="Path 517" d="M250.632,185.619c.029.182.037.335.057.491s.041.308.051.492a.734.734,0,0,1-.108-.983Z" transform="translate(-240.008 -172.218)" fill="#ed1c24"/>
  <path id="Path_518" data-name="Path 518" d="M237.366,201.918a.516.516,0,0,1,.3.1,1.9,1.9,0,0,1,.255.193,2.579,2.579,0,0,1,.418.48,2.675,2.675,0,0,1,.289.568,1.866,1.866,0,0,1,.108.624c-.077-.2-.157-.383-.248-.564a5.714,5.714,0,0,0-.31-.519,5.181,5.181,0,0,0-.364-.483c-.066-.077-.133-.152-.205-.224A.635.635,0,0,0,237.366,201.918Z" transform="translate(-228.818 -186.112)" fill="#ed1c24"/>
  <path id="Path_519" data-name="Path 519" d="M236.553,203.586c-.056.057-.03.144-.026.216s.027.152.042.228c.033.152.07.3.1.46.007.04.014.079.019.123s0,.08.005.117a1.194,1.194,0,0,1,.013.246.361.361,0,0,1-.044.145.272.272,0,0,1-.116.1.231.231,0,0,1-.145.02.115.115,0,0,1-.1-.092c.07.054.132.008.174-.032a.178.178,0,0,0,.046-.153c0-.064-.019-.137-.023-.223,0-.042,0-.1,0-.119s0-.072-.008-.11c-.017-.153-.036-.311-.041-.471a1.661,1.661,0,0,1,.006-.241.62.62,0,0,1,.023-.121A.135.135,0,0,1,236.553,203.586Z" transform="translate(-227.913 -187.536)" fill="#ed1c24"/>
  <path id="Path_520" data-name="Path 520" d="M239.923,199.664a.572.572,0,0,1,.26.077c.082.039.159.085.236.131.153.093.3.194.446.289.074.046.145.1.217.134a.43.43,0,0,0,.1.04h.038a.43.43,0,0,0,.052-.007.532.532,0,0,0,.2-.083.259.259,0,0,0,.12-.2.25.25,0,0,1-.021.291.48.48,0,0,1-.257.172.4.4,0,0,1-.173.014.579.579,0,0,1-.149-.063,2.045,2.045,0,0,1-.23-.154c-.144-.108-.279-.223-.414-.337l-.2-.17A.713.713,0,0,0,239.923,199.664Z" transform="translate(-230.998 -184.192)" fill="#ed1c24"/>
  <path id="Path_521" data-name="Path 521" d="M220.676,208.952a.614.614,0,0,1,.178.289,2.205,2.205,0,0,1,.082.331,5.231,5.231,0,0,1,.063.67l.011.332c0,.114,0,.225-.006.336-.012.222-.028.434-.024.662a1.654,1.654,0,0,1-.15-.661c-.008-.112-.008-.222-.014-.33s0-.224,0-.334c0-.221,0-.441-.009-.66,0-.109-.013-.218-.027-.326A.72.72,0,0,0,220.676,208.952Z" transform="translate(-214.59 -192.11)" fill="#ed1c24"/>
  <path id="Path_522" data-name="Path 522" d="M214.195,217.609a1.521,1.521,0,0,1-.916,1.053,6.578,6.578,0,0,1,.439-.543A6.843,6.843,0,0,1,214.195,217.609Z" transform="translate(-208.284 -199.49)" fill="#ed1c24"/>
  <path id="Path_523" data-name="Path 523" d="M205.795,204.98a1.9,1.9,0,0,0-.28.433,4.971,4.971,0,0,0-.2.471,4.869,4.869,0,0,0-.154.487,1.425,1.425,0,0,1-.09.259.367.367,0,0,1-.2.195.832.832,0,0,0,.127-.483,2.213,2.213,0,0,1,.135-.525,2.127,2.127,0,0,1,.255-.479A1.028,1.028,0,0,1,205.795,204.98Z" transform="translate(-201.117 -188.724)" fill="#ed1c24"/>
  <path id="Path_524" data-name="Path 524" d="M202.82,208.074a1.334,1.334,0,0,1-.331-.061,1.3,1.3,0,0,1-.308-.136.437.437,0,0,1,.639.2Z" transform="translate(-198.823 -191.133)" fill="#ed1c24"/>
  <path id="Path_525" data-name="Path 525" d="M208.84,211.291a.311.311,0,0,1,.234.078.134.134,0,1,1-.13.145A.31.31,0,0,1,208.84,211.291Z" transform="translate(-204.5 -194.103)" fill="#ed1c24"/>
  <path id="Path_526" data-name="Path 526" d="M190.8,183.754a2.982,2.982,0,0,1,.9-.013,2.95,2.95,0,0,1,.868.232,4.723,4.723,0,0,1-.892-.039A4.772,4.772,0,0,1,190.8,183.754Z" transform="translate(-189.12 -170.594)" fill="#ed1c24"/>
  <path id="Path_527" data-name="Path 527" d="M307.161,208.587c-.064.2-.118.393-.173.589s-.109.392-.155.586c-.012.049-.022.1-.031.145a1.506,1.506,0,0,1-.028.159.3.3,0,0,1-.133.17,1.023,1.023,0,0,0-.121.075.754.754,0,0,0-.277.487.613.613,0,0,1,.164-.614,1.015,1.015,0,0,1,.13-.1c.038-.028.042-.034.051-.066l.024-.143c.011-.053.024-.1.037-.155a4.444,4.444,0,0,1,.21-.586A2.846,2.846,0,0,1,307.161,208.587Z" transform="translate(-287.515 -191.799)" fill="#ed1c24"/>
  <path id="Path_528" data-name="Path 528" d="M301.551,212.724a1.22,1.22,0,0,0-.7.134.805.805,0,0,0-.146.1c-.054.038-.105.079-.162.114a.437.437,0,0,1-.409.015.6.6,0,0,0,.324-.141,1.287,1.287,0,0,1,.3-.256.8.8,0,0,1,.407-.1A.635.635,0,0,1,301.551,212.724Z" transform="translate(-282.334 -195.212)" fill="#ed1c24"/>
  <path id="Path_529" data-name="Path 529" d="M312.62,208.587a1.231,1.231,0,0,1,.117.432l.037.214a.782.782,0,0,0,.026.1.16.16,0,0,0,.03.058.531.531,0,0,1,.307.38.644.644,0,0,1-.039.244c-.017.07-.034.115,0,.153l-.054.018a1.282,1.282,0,0,1,.1-.116,1.248,1.248,0,0,1-.024.149l-.007.031-.047-.013a.163.163,0,0,1-.1-.113.4.4,0,0,1-.012-.131.919.919,0,0,0,0-.2.319.319,0,0,0-.078-.141.643.643,0,0,0-.068-.066l-.038-.032-.055-.043a.273.273,0,0,1-.066-.139.942.942,0,0,1-.016-.119,2.094,2.094,0,0,1,0-.227A2.225,2.225,0,0,0,312.62,208.587Z" transform="translate(-292.974 -191.799)" fill="#ed1c24"/>
  <path id="Path_530" data-name="Path 530" d="M326.173,211.079a1.85,1.85,0,0,1,.075-1.476,5.2,5.2,0,0,1,0,.74A5.3,5.3,0,0,1,326.173,211.079Z" transform="translate(-304.427 -192.665)" fill="#ed1c24"/>
  <path id="Path_531" data-name="Path 531" d="M330.191,202.653a1.355,1.355,0,0,1,.378.254.918.918,0,0,1,.244.4,1.121,1.121,0,0,0,.146.368.269.269,0,0,0,.344.083.217.217,0,0,1-.206.116.4.4,0,0,1-.241-.087.844.844,0,0,1-.229-.421,1.162,1.162,0,0,0-.174-.365C330.374,202.89,330.277,202.779,330.191,202.653Z" transform="translate(-307.954 -186.74)" fill="#ed1c24"/>
  <path id="Path_532" data-name="Path 532" d="M338.754,193.756a1.382,1.382,0,0,1-.571-.647c-.061-.137-.091-.273-.148-.38a.321.321,0,0,0-.3-.191.249.249,0,0,1,.225-.032.415.415,0,0,1,.2.136,1.688,1.688,0,0,1,.2.387A6.78,6.78,0,0,0,338.754,193.756Z" transform="translate(-314.385 -178.079)" fill="#ed1c24"/>
  <path id="Path_533" data-name="Path 533" d="M337.122,180.877a5.206,5.206,0,0,1,.662-.121,5.054,5.054,0,0,1,.67-.056,1.477,1.477,0,0,1-1.332.177Z" transform="translate(-313.862 -168.024)" fill="#ed1c24"/>
  <path id="Path_534" data-name="Path 534" d="M334.181,163.271a3.582,3.582,0,0,1-.669.832,3.545,3.545,0,0,1-.871.618,9.167,9.167,0,0,1,.737-.76A9.341,9.341,0,0,1,334.181,163.271Z" transform="translate(-310.042 -153.166)" fill="#ed1c24"/>
  <path id="Path_535" data-name="Path 535" d="M289.578,172.894a2.4,2.4,0,0,1-.723.01,2.374,2.374,0,0,1-.7-.184,2.371,2.371,0,0,1,.723-.01A2.4,2.4,0,0,1,289.578,172.894Z" transform="translate(-272.118 -161.194)" fill="#ed1c24"/>
  <path id="Path_536" data-name="Path 536" d="M292.584,181.834a4.234,4.234,0,0,1-.891.364,3.515,3.515,0,0,0-.437.134.387.387,0,0,0-.243.333.381.381,0,0,1,.164-.463,1.6,1.6,0,0,1,.461-.191A4.221,4.221,0,0,1,292.584,181.834Z" transform="translate(-274.527 -168.992)" fill="#ed1c24"/>
  <path id="Path_537" data-name="Path 537" d="M294.557,195.216a.677.677,0,0,1-.281.365,2.15,2.15,0,0,1-.4.211,2.674,2.674,0,0,0-.377.185.835.835,0,0,0-.3.295.568.568,0,0,1,.2-.415,1.354,1.354,0,0,1,.394-.245c.138-.056.272-.106.4-.163A1.187,1.187,0,0,0,294.557,195.216Z" transform="translate(-276.419 -180.4)" fill="#ed1c24"/>
  <path id="Path_538" data-name="Path 538" d="M299.436,202.009a2.762,2.762,0,0,1-.644.428,2.729,2.729,0,0,0-.315.178.64.64,0,0,0-.236.27.449.449,0,0,1,.134-.383,1.162,1.162,0,0,1,.328-.238A2.732,2.732,0,0,1,299.436,202.009Z" transform="translate(-280.71 -186.191)" fill="#ed1c24"/>
  <path id="Path_539" data-name="Path 539" d="M210.355,94.755a7.706,7.706,0,0,1,2.4.65c.188.092.381.178.566.277s.37.2.549.31.356.224.528.345.344.241.511.369l.5.383.493.394c.157.138.313.28.46.429s.28.31.411.474a7.454,7.454,0,0,1,1.218,2.2l-.081.062a14.462,14.462,0,0,1-1.894-1.577c-.146-.137-.287-.276-.422-.423s-.27-.29-.4-.443l-.395-.448c-.134-.147-.277-.285-.418-.426s-.294-.266-.441-.4-.306-.252-.459-.379-.315-.24-.474-.361-.329-.221-.494-.333a8.188,8.188,0,0,0-2.183-1Z" transform="translate(-205.775 -94.755)"/>
  <path id="Path_540" data-name="Path 540" d="M207.361,164.067c-.876,0-1.587-.969-1.587-2.164a2.925,2.925,0,0,1,.045-.51h-.045c-1.594,0-2.885,1.586-2.885,3.541s1.292,3.541,2.885,3.541,2.886-1.586,2.886-3.541a4.223,4.223,0,0,0-.241-1.417A1.377,1.377,0,0,1,207.361,164.067Z" transform="translate(-199.425 -151.563)"/>
  <path id="Path_541" data-name="Path 541" d="M305.136,168.8c-.8,0-1.44-.879-1.44-1.964a2.643,2.643,0,0,1,.041-.463H303.7a3.282,3.282,0,1,0,2.619,3.214,3.835,3.835,0,0,0-.219-1.286A1.25,1.25,0,0,1,305.136,168.8Z" transform="translate(-283.133 -155.812)"/>
  <path id="Path_542" data-name="Path 542" d="M221.534,290.923c-1.53,1.4,6.235-3.146,12.795-.8-.045-.88-2.425-1.912-2.425-1.912S224.925,287.811,221.534,290.923Z" transform="translate(-215.155 -259.668)" fill="#b3b3b3"/>
  <path id="Path_543" data-name="Path 543" d="M187.616,292.672a10.749,10.749,0,0,1,2.085-2.688,13.2,13.2,0,0,1,1.31-1.1,11.545,11.545,0,0,1,1.441-.921,23.008,23.008,0,0,1,3.144-1.3,30.3,30.3,0,0,1,3.246-.982,11.759,11.759,0,0,1,1.7-.272,8.936,8.936,0,0,1,1.739.03,6.905,6.905,0,0,1,1.725.424,4.653,4.653,0,0,1,1.535.982,4.161,4.161,0,0,1,.989,1.544,5.2,5.2,0,0,1,.308,1.76,8.484,8.484,0,0,1-.741,3.34l-.075-.022a11.875,11.875,0,0,0,.2-3.282,5.2,5.2,0,0,0-.4-1.512,3.828,3.828,0,0,0-.867-1.228,4.616,4.616,0,0,0-1.273-.83,6.636,6.636,0,0,0-1.513-.445,10.711,10.711,0,0,0-1.614-.134,14.347,14.347,0,0,0-1.646.068,11.583,11.583,0,0,0-3.226.8,16.966,16.966,0,0,0-2.9,1.623,32.648,32.648,0,0,0-2.683,1.918,23.625,23.625,0,0,0-2.422,2.28Z" transform="translate(-186.406 -257.265)"/>
  <path id="Path_544" data-name="Path 544" d="M295.791,155.249a8.179,8.179,0,0,1,1.051,4.069c0,3.905-2.58,7.071-5.762,7.071a5.312,5.312,0,0,1-4.187-2.216,5.532,5.532,0,0,0,4.711,3c3.182,0,5.762-3.166,5.762-7.071A7.969,7.969,0,0,0,295.791,155.249Z" transform="translate(-271.042 -146.327)" fill="#b3b3b3"/>
</svg>
