<svg xmlns="http://www.w3.org/2000/svg" xmlns:xlink="http://www.w3.org/1999/xlink" width="55.872" height="55.872" viewBox="0 0 55.872 55.872">
  <defs>
    <clipPath id="clip-path">
      <path id="Path_3" data-name="Path 3" d="M384.989,88.688a27.936,27.936,0,1,1-27.936-27.936A27.936,27.936,0,0,1,384.989,88.688Z" fill="#20364b" opacity="0.3"/>
    </clipPath>
  </defs>
  <g id="Group_3" data-name="Group 3" transform="translate(-329.117 -60.752)">
    <g id="Group_2" data-name="Group 2">
      <path id="Path_1" data-name="Path 1" d="M384.989,88.688a27.936,27.936,0,1,1-27.936-27.936A27.936,27.936,0,0,1,384.989,88.688Z" fill="#20364b" opacity="0.3"/>
      <g id="Group_1" data-name="Group 1" clip-path="url(#clip-path)">
        <path id="Path_2" data-name="Path 2" d="M388.286,117.108a10.415,10.415,0,0,0-5.663-5.907,6.847,6.847,0,0,0-1.392-.585c-1.553-.353-3.092-.769-4.619-1.226a2.01,2.01,0,0,1-1.427-.5,22.992,22.992,0,0,1-3.379-1.437,1.474,1.474,0,0,1-.979-.454c-.193-.051-.354-.179-.546-.232a2.41,2.41,0,0,1-1.363-.865c-.211-.139-.436-.263-.635-.422a.855.855,0,0,1-.476-.618c-.093-.4-.213-.8-.322-1.194a8.575,8.575,0,0,1-.236-1.231c-.05-.23-.1-.43-.36-.5-.245-.122-.478-.005-.709.044-.471.1-.728-.046-.8-.545-.052-.36-.151-.721-.168-1.076-.038-.792-.158-1.632.6-2.215a31.4,31.4,0,0,0,2.073-5.611c.121-.434.325-.8.9-.816a.813.813,0,0,0,.743-.628,21.613,21.613,0,0,1,1.191-3.342,14.445,14.445,0,0,0,.581-2.315c-.007-.162.036-.324.02-.486a.417.417,0,0,0-.092-.172.538.538,0,0,1-.086-.065c.015-.347.042-.692.03-1.037a1,1,0,0,0-.722-1.01c-.437-.114-.517-.354-.49-.742.1-1.523.186-3.05.277-4.575a.162.162,0,0,0-.016-.143.081.081,0,0,0,0-.091c-.045-.462-.084-.924-.137-1.385a7.753,7.753,0,0,0-.823-3.2,11.13,11.13,0,0,0-4.617-4.328,19.971,19.971,0,0,0-5.244-1.617,11.231,11.231,0,0,0-9.992,2.569.3.3,0,0,1,.023.079h0a2.191,2.191,0,0,0-.771.834,6.689,6.689,0,0,1-1.384,1.672,3.738,3.738,0,0,0-1.346,3.3.523.523,0,0,0-.108.062.652.652,0,0,0-.119.169,15.488,15.488,0,0,0,.056,3.257,13.911,13.911,0,0,1,.351,2.808.876.876,0,0,1-.6,1.043,1.489,1.489,0,0,0-.972,1.347,4.73,4.73,0,0,0,.069,1.92c.247.9.507,1.788.8,2.67a7.294,7.294,0,0,1,.9,2.416,1.23,1.23,0,0,0,.827,1.054,1.043,1.043,0,0,1,.707.829c.143.653.386,1.275.585,1.908a3.961,3.961,0,0,1,.617,1.578.518.518,0,0,0,.045.181,6.305,6.305,0,0,1,.969,5.675c-.376.4-.748-.018-1.122-.025s-.69-.041-.782.42c-.286.9-.44,1.833-.724,2.732a1.673,1.673,0,0,1-.871,1.086,17.862,17.862,0,0,1-3.172,1.3,9.97,9.97,0,0,1-2.446.984c-1.6.59-3.281.927-4.928,1.369a15.75,15.75,0,0,0-5.66,2.5c-.859,1.053-1.988,1.91-2.409,3.285,0,.586.034,1.175-.011,1.758-.033.454.094.562.554.561q29.85-.02,59.7-.012C388.477,117.687,388.4,117.415,388.286,117.108Z" fill="#20364b" fill-rule="evenodd" opacity="0.8"/>
      </g>
    </g>
  </g>
</svg>
