<svg xmlns="http://www.w3.org/2000/svg" xmlns:xlink="http://www.w3.org/1999/xlink" width="363.323" height="594.911" viewBox="0 0 363.323 594.911">
  <defs>
    <linearGradient id="linear-gradient" y1="0.5" x2="1" y2="0.5" gradientUnits="objectBoundingBox">
      <stop offset="0" stop-color="#ffc444"/>
      <stop offset="0.996" stop-color="#f36f56"/>
    </linearGradient>
    <linearGradient id="linear-gradient-2" x1="0.125" y1="1.079" x2="0.802" y2="-0.165" xlink:href="#linear-gradient"/>
    <linearGradient id="linear-gradient-3" x1="0" y1="0.5" x2="1.668" y2="0.5" xlink:href="#linear-gradient"/>
    <linearGradient id="linear-gradient-4" y1="0.5" x2="1" y2="0.5" gradientUnits="objectBoundingBox">
      <stop offset="0" stop-color="#6e1f3f"/>
      <stop offset="1" stop-color="#792d3d"/>
    </linearGradient>
    <linearGradient id="linear-gradient-5" y1="0.5" x2="1" y2="0.5" gradientUnits="objectBoundingBox">
      <stop offset="0" stop-color="#311944"/>
      <stop offset="1" stop-color="#893976"/>
    </linearGradient>
    <linearGradient id="linear-gradient-6" x1="0.287" y1="0.3" x2="1.372" y2="1.771" xlink:href="#linear-gradient-5"/>
    <linearGradient id="linear-gradient-7" x1="-2.196" y1="2.802" x2="-1.263" y2="2.802" xlink:href="#linear-gradient-5"/>
    <linearGradient id="linear-gradient-8" x1="-3.397" y1="2.45" x2="-2.743" y2="2.733" xlink:href="#linear-gradient"/>
    <linearGradient id="linear-gradient-9" x1="0.18" y1="0.437" x2="1.243" y2="1.17" xlink:href="#linear-gradient"/>
    <linearGradient id="linear-gradient-10" x1="0.393" y1="0.321" x2="0.94" y2="1.571" xlink:href="#linear-gradient"/>
    <linearGradient id="linear-gradient-11" y1="0.5" x2="1" y2="0.5" gradientUnits="objectBoundingBox">
      <stop offset="0" stop-color="#aa80f9"/>
      <stop offset="0.996" stop-color="#6165d7"/>
    </linearGradient>
    <linearGradient id="linear-gradient-12" y1="0.5" x2="1" y2="0.5" gradientUnits="objectBoundingBox">
      <stop offset="0" stop-color="#ff9085"/>
      <stop offset="1" stop-color="#fb6fbb"/>
    </linearGradient>
    <linearGradient id="linear-gradient-13" x1="0.226" y1="0.278" x2="1.024" y2="0.84" xlink:href="#linear-gradient"/>
    <linearGradient id="linear-gradient-14" x1="-100.693" y1="10.586" x2="-100.609" y2="8.943" xlink:href="#linear-gradient"/>
    <linearGradient id="linear-gradient-15" x1="-0.01" y1="0.067" x2="0.936" y2="0.8" gradientUnits="objectBoundingBox">
      <stop offset="0" stop-color="#ab316d"/>
      <stop offset="1" stop-color="#792d3d"/>
    </linearGradient>
    <linearGradient id="linear-gradient-16" x1="0.442" y1="0.646" x2="1.719" y2="1.627" xlink:href="#linear-gradient-15"/>
    <linearGradient id="linear-gradient-17" x1="-116.372" y1="6.556" x2="-116.417" y2="9.484" xlink:href="#linear-gradient"/>
    <linearGradient id="linear-gradient-18" x1="2.185" y1="1.921" x2="6.059" y2="4.048" xlink:href="#linear-gradient-15"/>
  </defs>
  <g id="Group_173" data-name="Group 173" transform="translate(-4459.486 -2067.188)">
    <path id="Path_415" data-name="Path 415" d="M4461.533,2701.851c11.067,16.519,68.567-.3,105.789-18.4,60.117-29.225,57.813-57.137,108.088-81.641,72.7-35.433,144.139-9.544,147.184-24.722,2-9.979-27.435-28.4-58.643-34.5-36.256-7.083-53.708,6.6-137.985,32.772-68.059,21.134-74.918,17.874-98.062,33.06C4485.3,2636.377,4450.559,2685.469,4461.533,2701.851Z" transform="translate(0 -46.495)" fill="#6165d7" opacity="0.3" style="mix-blend-mode: multiply;isolation: isolate"/>
    <path id="Path_416" data-name="Path 416" d="M4841.592,2478.737c1.921-2.464,6.239-3.383,9.342-2.443,6.086,1.842,6.036,13.671,7.475,26.3,1.631,14.334,3.974,29.542-2.444,29.465-2.857-.033-8.023-8.739-9.055-16.817a81.191,81.191,0,0,0-4.815-18.613,50.852,50.852,0,0,1-1.375-7.95C4840.256,2483.649,4839.992,2480.788,4841.592,2478.737Z" transform="translate(-37.396 -40.132)" fill="#26264f"/>
    <path id="Path_417" data-name="Path 417" d="M4847.923,2489.272c0,6.192-10.434,8.7-16.745,8.7s-6.109-2.5-6.109-8.7.229-10.708,6.54-10.708S4847.923,2483.08,4847.923,2489.272Z" transform="translate(-35.894 -40.39)" fill="url(#linear-gradient)"/>
    <path id="Path_418" data-name="Path 418" d="M4544.311,2609.728q-5.14,20.369-10.282,40.74c.8,1.362,2.769,4.255,6.147,4.875,3.782.694,7.072-1.874,8.3-2.944,2.671-19.229,7.344-31.386,11.926-39.37,3.218-5.608,6.375-9.13,6.133-11.133C4566.095,2598.271,4554.992,2603.689,4544.311,2609.728Z" transform="translate(-7.319 -52.384)" fill="url(#linear-gradient-2)"/>
    <path id="Path_419" data-name="Path 419" d="M4514.438,2337.518l-6.282.93s-11.166-.466-17.68.7-10.236,4.421-10.236,11.167,8.232,7.575,15.354,8.374c4.333.486,10.24-3.17,14.739-6.544,3.165-2.374,11.25-4.5,11.25-4.5Z" transform="translate(-2.038 -26.542)" fill="url(#linear-gradient-3)"/>
    <path id="Path_420" data-name="Path 420" d="M4565.858,2086.411c-7.929,5.285-9.384,20.463-7.278,29.636a67.344,67.344,0,0,0,7.168,18.25c1.581,4.043,2.952,7.832,4.051,11.229.806,2.492,1.371,4.468,1.888,6.606a83.248,83.248,0,0,1,1.992,12.054.513.513,0,0,0,.511.468.377.377,0,0,0,.047,0,.512.512,0,0,0,.464-.557,84.383,84.383,0,0,0-2.015-12.2c-.524-2.166-1.095-4.165-1.909-6.682-.58-1.79-1.239-3.7-1.958-5.679a55.446,55.446,0,0,1,6.707,18.737c4.359,25.173,28.542,32.531,42.751,27.106,12.574-4.8,21.69-17.283,23.347-29.343C4646.809,2118.27,4583.291,2074.79,4565.858,2086.411Z" transform="translate(-9.644 -1.699)" fill="url(#linear-gradient-4)"/>
    <path id="Path_421" data-name="Path 421" d="M4613.493,2326.7c-18.507,32.2-30.48,80.081-45.987,134.3-13.926,48.7-26.037,92.295-32.154,126.418a66.99,66.99,0,0,0,10.713,7.222c15.916,8.614,31.689,8.72,40.5,8a325.629,325.629,0,0,1,4.563-37.95c4.028-22.344,11.2-63.827,28.3-101.414,11.865-26.075,17.8-39.113,27.821-48.021,6.163-5.478,20.442-17.071,22.9-34.728a15.432,15.432,0,0,0,.137-2.228C4670.2,2353.584,4624.362,2331.605,4613.493,2326.7Z" transform="translate(-7.449 -25.479)" fill="url(#linear-gradient-5)"/>
    <path id="Path_422" data-name="Path 422" d="M4617.733,2326.7c-10.113,17.594-18.273,39.894-26.126,65.329,18.505,9.922,34.3,26.522,27.074,46.763-6.9,20.7-32.772,29.322-37.945,53.469-5.175,25.872,6.9,48.3,1.724,74.167-2.552,12.122-3.449,24.244-3.919,36.278a80.158,80.158,0,0,0,12.261-.07,325.629,325.629,0,0,1,4.563-37.95c4.028-22.344,11.2-63.827,28.3-101.414,11.865-26.075,17.8-39.113,27.821-48.021,6.163-5.478,20.442-17.071,22.9-34.728a15.506,15.506,0,0,0,.137-2.228C4674.444,2353.584,4628.6,2331.605,4617.733,2326.7Z" transform="translate(-11.689 -25.479)" fill="url(#linear-gradient-6)"/>
    <path id="Path_423" data-name="Path 423" d="M4641.1,2375.327a8.2,8.2,0,0,0-.614,2.685c-.357,9.16,16.568,21.153,53.36,79.841,6.5,10.366,17.577,28.508,35.527,33.89a36.232,36.232,0,0,0,5.767,1.232,36.94,36.94,0,0,0,10.3-.1c4.452-.629,21.707.02,70.847,4.4.392-.876,8.778-20.365-1.958-33.849a25.867,25.867,0,0,0-9.789-7.432c-11.528-1.732-21.2-2.625-28.509-3.117a124.21,124.21,0,0,0-20.659-.066c-4.281.381-7.824.949-10.313,1.408-17.567-50.663-8.959-94.664-30.076-95.6C4710.761,2358.427,4645.421,2362.562,4641.1,2375.327Z" transform="translate(-17.771 -28.613)" fill="url(#linear-gradient-7)"/>
    <path id="Path_424" data-name="Path 424" d="M4571.677,2226.218c-10.725,3.721,5.409,42.059-16.583,71.453-11.11,14.849-27.835,21.916-42.441,25.542,2.965,9.522,2.466,9.555,5.43,19.077,7.657.317,36.239.583,60.415-20.182,6.162-5.294,25.245-21.684,26.484-47.172C4606.561,2242.474,4581.788,2222.711,4571.677,2226.218Z" transform="translate(-5.22 -15.575)" fill="url(#linear-gradient-8)"/>
    <path id="Path_425" data-name="Path 425" d="M4590.869,2182.859c-5.388,6.421-7.632,12.334-10.477,20.039-4.511,12.217-7.085,19.19-6.75,27.844.643,16.636,11.622,28.719,16.875,33.75,11.479,36.857,14.136,45.481,14.144,45.6l.013.23a105.119,105.119,0,0,1-3.383,18.821c-5.7,20.654-13.646,24.518-11.618,31.962,3.557,13.052,32.686,18.39,54.844,16.031,11.743-1.25,12.822-3.736,22.781-5.484,41.828-7.344,61.095,29.78,88.452,20.249,19.446-6.774,19.725-29.3,45-33.749,8.825-1.553,18.58-.581,19.406-3.938.805-3.273-7.413-8.512-14.344-11.25-14.956-5.908-28.766-2.09-34.875-1.125-27.365,4.322-55.223-24.135-71.939-41.209-47.259-48.272-45.938-115.454-45.376-129.44-3.752-2.007-17.442-8.749-47.557-.643A51.265,51.265,0,0,0,4590.869,2182.859Z" transform="translate(-11.205 -9.765)" fill="url(#linear-gradient-9)"/>
    <path id="Path_426" data-name="Path 426" d="M4828.558,2360.315c.805-3.273-7.413-8.512-14.344-11.25-14.956-5.908-28.766-2.09-34.875-1.125-27.365,4.321-55.223-24.135-71.939-41.209-23.735-24.243-35.211-53.252-40.69-77.9-3.725,27.473-13.6,55.317-2.165,79.61,8.624,22.423,41.4,20.7,53.469,46.57,5.175,10.35,18.974,8.625,31.047,10.35,8.624,0,12.073,13.8,24.147,12.073,5.174-1.724,8.624-10.348,12.073-10.348,4.385,0,9.114.059,13.985.307a36.936,36.936,0,0,1,9.885-3.14C4817.977,2362.7,4827.732,2363.672,4828.558,2360.315Z" transform="translate(-19.607 -15.871)" fill="#f8944e" opacity="0.24" style="mix-blend-mode: multiply;isolation: isolate"/>
    <path id="Path_427" data-name="Path 427" d="M4685.334,2378.2c-3.165,2.526-10.312,7.538-18.984,7.668a20.089,20.089,0,0,1-7.119-1.039,22.519,22.519,0,0,1-9.334-6.31,156.219,156.219,0,0,1,20.39-8.626l6.609-1.758Z" transform="translate(-18.695 -29.548)" fill="url(#linear-gradient-10)"/>
    <g id="Group_170" data-name="Group 170" transform="translate(4562.026 2191.24)">
      <path id="Path_428" data-name="Path 428" d="M4776.958,2309.47l-157.229,63.307a7.982,7.982,0,0,1-10.385-4.424l-35.574-89.334a7.983,7.983,0,0,1,4.423-10.386l157.228-63.307a7.983,7.983,0,0,1,10.386,4.424l35.573,89.334A7.982,7.982,0,0,1,4776.958,2309.47Z" transform="translate(-4573.19 -2204.746)" fill="#6165d7"/>
      <path id="Path_429" data-name="Path 429" d="M4780.223,2310.5,4623,2373.808a7.982,7.982,0,0,1-10.386-4.424l-35.574-89.335a7.981,7.981,0,0,1,4.423-10.385l157.228-63.308a7.983,7.983,0,0,1,10.386,4.423l35.573,89.334A7.982,7.982,0,0,1,4780.223,2310.5Z" transform="translate(-4573.51 -2204.847)" fill="url(#linear-gradient-11)"/>
      <g id="Group_165" data-name="Group 165" transform="translate(38.016 64.481)">
        <path id="Path_430" data-name="Path 430" d="M4653,2296.531c8.529.151,16.255,7.284,17.248,15.9a14.73,14.73,0,0,1-.753,6.728l18.972,8.773a33.909,33.909,0,0,0,1.611-15.213c-2.267-19.685-19.888-36.045-39.417-36.467-.05,0-.1,0-.15,0l2.339,20.284C4652.9,2296.537,4652.954,2296.53,4653,2296.531Z" transform="translate(-4618.798 -2276.248)" fill="#fff"/>
        <path id="Path_431" data-name="Path 431" d="M4666.046,2319.159a13.194,13.194,0,0,1-12.878,8.72c-8.55-.1-16.342-7.23-17.343-15.9-.995-8.618,5.1-15.51,13.576-15.445l-2.339-20.284c-19.6-.341-33.772,15.522-31.472,35.434,2.307,19.96,20.275,36.313,39.916,36.46,14.1.1,25.271-8.188,29.512-20.214Z" transform="translate(-4615.344 -2276.247)" fill="url(#linear-gradient-12)"/>
      </g>
      <g id="Group_166" data-name="Group 166" transform="translate(115.731 48.032)">
        <path id="Path_432" data-name="Path 432" d="M4770.455,2265.339l-65.571,26.848a.607.607,0,0,1-.792-.339l-2.526-6.248a.613.613,0,0,1,.332-.8l65.613-26.752a.6.6,0,0,1,.774.339l2.49,6.165A.6.6,0,0,1,4770.455,2265.339Z" transform="translate(-4701.521 -2258.007)" fill="#4c53a5"/>
      </g>
      <g id="Group_167" data-name="Group 167" transform="translate(110.2 34.758)">
        <path id="Path_433" data-name="Path 433" d="M4764.322,2250.62l-65.571,26.848a.606.606,0,0,1-.792-.339l-2.526-6.248a.612.612,0,0,1,.332-.8l65.613-26.752a.6.6,0,0,1,.774.338l2.489,6.166A.6.6,0,0,1,4764.322,2250.62Z" transform="translate(-4695.388 -2243.288)" fill="#4c53a5"/>
      </g>
      <g id="Group_168" data-name="Group 168" transform="translate(126.516 75.409)">
        <path id="Path_434" data-name="Path 434" d="M4782.414,2295.7l-65.571,26.848a.606.606,0,0,1-.792-.339l-2.526-6.248a.614.614,0,0,1,.332-.8l65.613-26.751a.6.6,0,0,1,.775.338l2.489,6.166A.6.6,0,0,1,4782.414,2295.7Z" transform="translate(-4713.479 -2288.364)" fill="#4c53a5"/>
      </g>
      <g id="Group_169" data-name="Group 169" transform="translate(120.985 62.135)">
        <path id="Path_435" data-name="Path 435" d="M4776.281,2280.978l-65.571,26.848a.607.607,0,0,1-.792-.339l-2.526-6.248a.612.612,0,0,1,.332-.8l65.613-26.752a.6.6,0,0,1,.775.338l2.489,6.166A.6.6,0,0,1,4776.281,2280.978Z" transform="translate(-4707.347 -2273.646)" fill="#4c53a5"/>
      </g>
    </g>
    <path id="Path_436" data-name="Path 436" d="M4639.567,2187.011c16.019-15.55,65.869,2.087,84.643,42.789,16.151,35.015,20.875,61.866,4.533,96.295a85.093,85.093,0,0,1-42.222,41.168c-1.305-2.284-6.105-6.311-12.415-15.863,15.9-5.96,30.861-34.668,32.543-52.309,2.234-23.439-10.157-45.963-21.715-54.243-10.8-7.736-43.665,1.107-53.994-6.176C4617.231,2229.006,4627.25,2198.967,4639.567,2187.011Z" transform="translate(-16.186 -11.215)" fill="url(#linear-gradient-13)"/>
    <path id="Path_437" data-name="Path 437" d="M4608.625,2117.159c-2.781,13.178-3.915,29.064,4.941,37.266,7.8,7.223,18.984,4.444,19.776,8.226,1.564,7.469-40.847,24.163-44.035,18.855-1.572-2.618,11.735-8.634,11.469-18.222-.11-3.986-1.917-6.756-12.2-20.927l-3.436,1.2Z" transform="translate(-12.337 -4.906)" fill="url(#linear-gradient-14)"/>
    <g id="Group_172" data-name="Group 172" transform="translate(4559.292 2067.188)">
      <path id="Path_438" data-name="Path 438" d="M4742,2126.154c-6.743-20.553-27.511-30.966-31.437-32.742-24.4-11.045-33.86,3.863-62.646-6.527-1.254-.453-2.44-.919-3.582-1.395a72.613,72.613,0,0,0,22.951,3.683c.6.011,1.19.022,1.771.039.175,0,.352.006.534.006a80.45,80.45,0,0,0,11.543-1.372c2.713-.444,5.275-.864,7.235-1.027a35.232,35.232,0,0,1,12.077.891c.575.126,1.145.251,1.726.368a.422.422,0,1,0,.166-.827c-.577-.115-1.141-.24-1.711-.365a35.858,35.858,0,0,0-12.33-.907c-1.992.166-4.57.588-7.3,1.036a75.909,75.909,0,0,1-11.917,1.354c-.583-.016-1.174-.027-1.779-.039-6.443-.123-14.358-.289-30.018-6.161-1.9-.994-3.7-2-5.474-3,.6.232,1.2.463,1.793.694,4.6,1.794,9.349,3.649,14.08,4.411a33.761,33.761,0,0,0,5.373.427q.711,0,1.425-.03a.512.512,0,0,0,.491-.534.5.5,0,0,0-.534-.492,32.947,32.947,0,0,1-6.592-.385c-4.62-.744-9.323-2.579-13.869-4.353-1.8-.7-3.655-1.426-5.448-2.058-.766-.27-1.511-.522-2.259-.756a72.562,72.562,0,0,0-23.525-8c-9.555-1.628-27.324-1.382-31.843,3.529-4.987,5.421,16.527,11.156,24.222,47.635,1.96,9.29,7.02,31.651,27.714,50.121,4.783,4.269,43.865,38.182,82.691,21.8C4731.363,2180.27,4749.87,2150.145,4742,2126.154Z" transform="translate(-4570.158 -2067.188)" fill="url(#linear-gradient-15)"/>
      <g id="Group_171" data-name="Group 171" transform="translate(30.51 23.514)" opacity="0.2" style="mix-blend-mode: multiply;isolation: isolate">
        <path id="Path_439" data-name="Path 439" d="M4745.32,2128.714c-6.743-20.553-27.511-30.966-31.437-32.742a51.7,51.7,0,0,0-7.383-2.71,33.2,33.2,0,0,1,7.233,7.369c1.96,2.767,6.723,9.49,5.625,17.438-1.021,7.393-6.22,9.383-11.25,17.438-8.436,13.512-2.38,21.646-7.875,29.25-9.7,13.424-43.064,8.134-64.125-1.125a96.494,96.494,0,0,1-32.118-23.2,84.911,84.911,0,0,0,22.168,31.508c4.783,4.269,43.865,38.182,82.691,21.8C4734.685,2182.83,4753.191,2152.7,4745.32,2128.714Z" transform="translate(-4603.99 -2093.262)" fill="url(#linear-gradient-16)"/>
      </g>
    </g>
    <path id="Path_440" data-name="Path 440" d="M4600.5,2128.407s.736,15.529-14.407,17.845c-18.659,2.853-28-46.111-23.877-49.6,4.783-4.042,10.569,3.275,22.414-1.323,4.987-1.936,8.468-9.23,12.14-2.465,4.176,7.7,3.789,22.473,3.789,22.473s3.9-4.312,5.228-.011C4607.526,2120.96,4603.735,2125.2,4600.5,2128.407Z" transform="translate(-9.992 -2.245)" fill="url(#linear-gradient-17)"/>
    <path id="Path_441" data-name="Path 441" d="M4562.752,2077.136c-5.034,6.917-6.571,19.124-1.594,24.411,7.149,7.595,23.3-3.82,31.961,5.483,3.8,4.08,4.548,10.409,6.155,10.066,1.331-.283,1.481-4.767,1.725-8.474,1.344-20.437,5.952-23.389,3.611-28.837C4599.851,2068.711,4573.089,2062.933,4562.752,2077.136Z" transform="translate(-9.684 -0.151)" fill="url(#linear-gradient-18)"/>
    <path id="Path_442" data-name="Path 442" d="M4509.125,2642.144c1.328-1.851,10.044-.909,14.445,1.51,7.385,4.058,11.692,11.3,13.583,12.289,4.311,2.263,8.4.325,8.763.427,0,0,2.879,5.825-2.3,8.628S4500.932,2653.571,4509.125,2642.144Z" transform="translate(-4.759 -56.355)" fill="#26264f"/>
  </g>
</svg>
