<svg xmlns="http://www.w3.org/2000/svg" width="65.847" height="50" viewBox="0 0 65.847 50">
  <g id="Layer_2" data-name="Layer 2" transform="translate(320 7.005)">
    <g id="Layer_1-2" data-name="Layer 1-2" transform="translate(-317 -4.005)">
      <path id="Path_409" data-name="Path 409" d="M-257.153-4V31h-11.989l-4.566-8.042L-279.357,31h-17.3l-7.333,8.992L-317-4Z" transform="translate(317 4.005)" fill="#f27581" stroke="#f27581" stroke-linecap="round" stroke-linejoin="round" stroke-width="6"/>
      <circle id="Ellipse_216" data-name="Ellipse 216" cx="4.732" cy="4.732" r="4.732" transform="translate(11.265 9.933)" fill="#ffc258"/>
      <path id="Path_410" data-name="Path 410" d="M-269,17.735c2.917,0,2.917,2.012,5.834,2.012s2.917-2.012,5.834-2.012,2.912,2.012,5.829,2.012,2.917-2.012,5.839-2.012,2.917,2.012,5.834,2.012" transform="translate(293.14 -6.802)" fill="none" stroke="#fff" stroke-linecap="round" stroke-linejoin="round" stroke-width="4"/>
      <path id="Path_411" data-name="Path 411" d="M-269,28.735c2.917,0,2.917,2.012,5.834,2.012s2.917-2.012,5.834-2.012,2.912,2.012,5.829,2.012,2.917-2.012,5.839-2.012,2.917,2.012,5.834,2.012" transform="translate(293.14 -12.27)" fill="none" stroke="#fff" stroke-linecap="round" stroke-linejoin="round" stroke-width="4"/>
    </g>
  </g>
</svg>
