<svg xmlns="http://www.w3.org/2000/svg" width="23" height="28.571" viewBox="0 0 23 28.571">
  <path id="Path_5" data-name="Path 5" d="M86.057,176.594H84.316v-2.175a7.27,7.27,0,1,0-14.54,0v2.175H68.029a2.485,2.485,0,0,0-2.474,2.474v14.151a2.492,2.492,0,0,0,2.474,2.5H86.057a2.5,2.5,0,0,0,2.5-2.5V179.068A2.49,2.49,0,0,0,86.057,176.594Zm-13-2.175a3.984,3.984,0,1,1,7.969,0v2.175H73.06Zm5.33,14.748v3.612a.272.272,0,0,1-.283.265H76.374a.269.269,0,0,1-.262-.265v-3.612a3.176,3.176,0,1,1,2.278,0Z" transform="translate(-65.555 -167.146)" fill="#1e4b74"/>
</svg>
