<svg id="Group_161" data-name="Group 161" xmlns="http://www.w3.org/2000/svg" xmlns:xlink="http://www.w3.org/1999/xlink" width="233.103" height="636.627" viewBox="0 0 233.103 636.627">
  <defs>
    <clipPath id="clip-path">
      <path id="Path_35" data-name="Path 35" d="M3243.986,1068.063q-42.927-1.534-85.96-5.02c-.411.463-16.419-59.723,9.1-95.043,50.608-68.553,5.7-120.075-9.007-151.922-22.844-44.676-20.06-102.359,32.48-97.43,51.05,3.6,47.233-100.256,29.808-178.661-11.648-37.81,19.606-88.712,54.79-103.45,35.813-15.978,75.554,4.208,95.435,79.943,27.061,87.241-32.044,148.2-51.186,195.565-18.844,46.5,40.228,75.893.15,119.682-33.507,38.676-77.809,68.718-55.792,110.2C3286.238,982.87,3285.888,1018.411,3243.986,1068.063Z" transform="translate(-3144.502 -431.435)" fill="none"/>
    </clipPath>
    <linearGradient id="linear-gradient" x1="-4.213" y1="-0.343" x2="-5.086" y2="0.565" gradientUnits="objectBoundingBox">
      <stop offset="0" stop-color="#aa80f9"/>
      <stop offset="0.996" stop-color="#6165d7"/>
    </linearGradient>
  </defs>
  <g id="Group_54" data-name="Group 54">
    <g id="Group_53" data-name="Group 53" clip-path="url(#clip-path)">
      <path id="Path_27" data-name="Path 27" d="M3244,1068.063q-42.927-1.534-85.96-5.02c-.411.463-16.419-59.723,9.1-95.043,50.608-68.553,5.7-120.075-9.008-151.922-22.662-44.661-19.044-96.141,28.3-102.139,52.4-7.682,52.293-95.805,33.988-173.952-11.648-37.81,19.607-88.712,54.791-103.45,35.813-15.978,75.553,4.208,95.434,79.943,27.061,87.241-32.043,148.2-51.185,195.565-18.844,46.5,40.228,75.893.15,119.682-33.507,38.676-77.809,68.718-55.791,110.2C3286.252,982.87,3285.9,1018.411,3244,1068.063Z" transform="translate(-3144.516 -431.435)" fill="url(#linear-gradient)"/>
      <g id="Group_52" data-name="Group 52" transform="translate(-3.236 -15.817)">
        <path id="Path_28" data-name="Path 28" d="M3211.941,1074.261c-.317-2.493,13.52-136.182,45.112-262.916,4.155-20.988,8.852-42.228,13.394-62.768,25.282-114.362,49.163-222.382-1.81-333.891l1.829-.837c51.255,112.124,27.3,220.462,1.945,335.164-4.539,20.529-9.233,41.758-13.4,62.772-32.389,129.933-45.071,261.491-45.074,262.31Z" transform="translate(-3148.049 -413.849)" fill="#beb8f2"/>
        <path id="Path_29" data-name="Path 29" d="M3302.486,652.087l-1.634-1.175c27.52-38.34,59.9-92.092,77.3-120.97,14.129-23.455,14.166-23.435,15.169-23.4l-.043,1.006.582.8c-.845.826-6.644,10.452-13.986,22.638C3362.462,559.882,3330.053,613.68,3302.486,652.087Z" transform="translate(-3156.991 -423.171)" fill="#beb8f2"/>
        <path id="Path_30" data-name="Path 30" d="M3298,602.687c-21.618-77.708-74.586-97.841-75.078-97.885l.071-.8-.8-.957c.491-.411,1.111-.264,1.814-.049,11.175,3.456,56.814,30.409,75.936,99.145Z" transform="translate(-3149.079 -422.794)" fill="#beb8f2"/>
        <path id="Path_31" data-name="Path 31" d="M3233.365,930.458l-2.011-.018c.662-80.558-61.566-148.772-88.352-174.36a28.28,28.28,0,0,1-2.1-2.082l1.613-1.205c.137.171.941.941,1.875,1.832C3171.365,780.395,3234.035,849.114,3233.365,930.458Z" transform="translate(-3140.904 -447.94)" fill="#beb8f2"/>
        <path id="Path_32" data-name="Path 32" d="M3252.742,897.5l-1.815-.864c27.695-58.233,98.386-70.08,99.557-70.08h.011l-.151.995-.968.262.973-.261.045,1C3349.718,828.611,3279.976,840.238,3252.742,897.5Z" transform="translate(-3151.97 -455.358)" fill="#beb8f2"/>
        <path id="Path_33" data-name="Path 33" d="M3209.287,1114.942c-1.191-16.187-10.012-43.043-45.254-79.063-2.046-2.091-2.046-2.091-2.03-2.6l1.006.032.848-.525c.125.163.815.87,1.615,1.686,35.667,36.454,44.606,63.8,45.824,80.321Z" transform="translate(-3143.026 -476.101)" fill="#beb8f2"/>
        <path id="Path_34" data-name="Path 34" d="M3220.774,1081.57l-1.982-.344c5.169-29.788,43.067-55.338,65.2-67.915.7-.4,1.146-.65,1.3-.756l1.112,1.679c-.175.113-.662.393-1.422.825C3263.16,1027.463,3225.8,1052.6,3220.774,1081.57Z" transform="translate(-3148.738 -474.066)" fill="#beb8f2"/>
      </g>
    </g>
  </g>
</svg>
