<svg xmlns="http://www.w3.org/2000/svg" xmlns:xlink="http://www.w3.org/1999/xlink" width="129.539" height="129.539" viewBox="0 0 129.539 129.539">
  <defs>
    <clipPath id="clip-path">
      <path id="Path_3" data-name="Path 3" d="M458.656,125.521a64.769,64.769,0,1,1-64.769-64.769A64.77,64.77,0,0,1,458.656,125.521Z" transform="translate(-329.117 -60.752)" fill="#6517cf" opacity="0.3"/>
    </clipPath>
  </defs>
  <g id="Group_6" data-name="Group 6" transform="translate(-329.117 -60.752)">
    <g id="Group_2" data-name="Group 2" transform="translate(329.117 60.752)">
      <path id="Path_1" data-name="Path 1" d="M458.656,125.521a64.769,64.769,0,1,1-64.769-64.769A64.77,64.77,0,0,1,458.656,125.521Z" transform="translate(-329.117 -60.752)" fill="#6517cf" opacity="0.3"/>
      <g id="Group_1" data-name="Group 1" clip-path="url(#clip-path)">
        <path id="Path_2" data-name="Path 2" d="M467.871,184.069a24.147,24.147,0,0,0-13.13-13.7,15.876,15.876,0,0,0-3.227-1.356c-3.6-.818-7.169-1.783-10.709-2.842a4.66,4.66,0,0,1-3.309-1.152c-2.629-1.071-5.383-1.843-7.834-3.332a3.417,3.417,0,0,1-2.27-1.053c-.447-.118-.821-.415-1.266-.538a5.587,5.587,0,0,1-3.16-2.005c-.489-.322-1.011-.61-1.472-.978a1.982,1.982,0,0,1-1.1-1.433c-.216-.93-.494-1.848-.747-2.768a19.88,19.88,0,0,1-.547-2.854c-.116-.533-.243-1-.835-1.157-.568-.283-1.108-.012-1.644.1-1.092.234-1.688-.107-1.862-1.264-.121-.835-.35-1.672-.39-2.495-.088-1.836-.366-3.784,1.4-5.135a72.8,72.8,0,0,0,4.806-13.009c.281-1.006.753-1.855,2.091-1.892a1.886,1.886,0,0,0,1.723-1.456,50.1,50.1,0,0,1,2.761-7.748c.373-1.808,1.271-3.487,1.347-5.367-.016-.376.083-.751.046-1.127a.967.967,0,0,0-.213-.4,1.248,1.248,0,0,1-.2-.151c.035-.8.1-1.6.07-2.4a2.307,2.307,0,0,0-1.674-2.342c-1.013-.264-1.2-.821-1.136-1.72.23-3.531.431-7.071.642-10.607a.375.375,0,0,0-.037-.332.188.188,0,0,0,0-.211c-.1-1.071-.195-2.142-.318-3.211-.285-2.56-.563-5.145-1.908-7.412a25.8,25.8,0,0,0-10.7-10.034A46.3,46.3,0,0,0,400.9,66.941,26.04,26.04,0,0,0,377.735,72.9a.7.7,0,0,1,.053.183h0A5.08,5.08,0,0,0,376,75.014a15.508,15.508,0,0,1-3.209,3.877c-2.254,2.11-3.485,4.551-3.121,7.66a1.214,1.214,0,0,0-.25.144,1.512,1.512,0,0,0-.276.392c-.543,2.523.141,5.033.13,7.551a32.251,32.251,0,0,1,.814,6.51,2.031,2.031,0,0,1-1.393,2.418,3.453,3.453,0,0,0-2.254,3.123,10.967,10.967,0,0,0,.16,4.451c.573,2.077,1.176,4.145,1.846,6.19a16.912,16.912,0,0,1,2.091,5.6,2.851,2.851,0,0,0,1.917,2.444A2.418,2.418,0,0,1,374.1,127.3c.332,1.514.895,2.956,1.356,4.424.538,1.2,1.421,2.258,1.43,3.659a1.2,1.2,0,0,0,.1.42c2.557,4.078,3.927,8.356,2.247,13.157-.872.93-1.734-.042-2.6-.058s-1.6-.1-1.813.974c-.663,2.082-1.02,4.25-1.679,6.334a3.879,3.879,0,0,1-2.019,2.518,41.412,41.412,0,0,1-7.354,3.023c-1.706,1.206-3.765,1.579-5.671,2.281-3.712,1.368-7.607,2.149-11.425,3.174-4.676,1.252-9.211,2.812-13.123,5.8-1.992,2.441-4.609,4.428-5.585,7.616,0,1.359.079,2.724-.026,4.076-.076,1.053.218,1.3,1.284,1.3q69.207-.045,138.412-.028C468.314,185.411,468.143,184.781,467.871,184.069Z" transform="translate(-330.689 -53.408)" fill="#6517cf" fill-rule="evenodd" opacity="0.8"/>
      </g>
    </g>
  </g>
</svg>
