<svg xmlns="http://www.w3.org/2000/svg" xmlns:xlink="http://www.w3.org/1999/xlink" width="828.783" height="695.307" viewBox="0 0 828.783 695.307">
  <defs>
    <clipPath id="clip-path">
      <path id="Path_142" data-name="Path 142" d="M1836.688,1179.274h69.59s13.1-35.7-3.954-60.891c-34.8-51.4,12.653-78.288,30.841-92.523,27.429-21.467,42.239-52.346,1.908-65.79s.2-75.947,49.493-104.23c48.239-27.678,26.873-129.4-83.033-79.08-65.636,30.05-55.355,99.64-58.519,136.016s-57.264,39.386-38.749,83.824c15.816,37.958,45.866,65.636,22.933,91.732S1801.893,1143.689,1836.688,1179.274Z" transform="translate(-1800.414 -762.992)" fill="none"/>
    </clipPath>
    <linearGradient id="linear-gradient" x1="0.765" y1="0.027" x2="0.1" y2="0.973" gradientUnits="objectBoundingBox">
      <stop offset="0" stop-color="#aa80f9"/>
      <stop offset="0.996" stop-color="#6165d7"/>
    </linearGradient>
    <linearGradient id="linear-gradient-2" x1="0.244" y1="0.137" x2="1.004" y2="1.839" gradientUnits="objectBoundingBox">
      <stop offset="0" stop-color="#ff9085"/>
      <stop offset="1" stop-color="#fb6fbb"/>
    </linearGradient>
    <linearGradient id="linear-gradient-3" x1="0.181" y1="0.111" x2="1.18" y2="2.117" xlink:href="#linear-gradient-2"/>
    <linearGradient id="linear-gradient-4" x1="0.244" y1="-0.016" x2="1.004" y2="1.987" xlink:href="#linear-gradient-2"/>
    <linearGradient id="linear-gradient-5" x1="-43.603" y1="3.38" x2="-42.33" y2="3.38" gradientUnits="objectBoundingBox">
      <stop offset="0" stop-color="#40447e"/>
      <stop offset="0.996" stop-color="#3c3b6b"/>
    </linearGradient>
    <linearGradient id="linear-gradient-6" x1="5.592" y1="-12.572" x2="35.559" y2="17.525" gradientUnits="objectBoundingBox">
      <stop offset="0" stop-color="#ffc444"/>
      <stop offset="0.996" stop-color="#f36f56"/>
    </linearGradient>
    <linearGradient id="linear-gradient-7" x1="-0.515" y1="0.432" x2="0.616" y2="2.006" gradientUnits="objectBoundingBox">
      <stop offset="0" stop-color="#311944"/>
      <stop offset="1" stop-color="#6b3976"/>
    </linearGradient>
    <linearGradient id="linear-gradient-8" x1="-3.197" y1="1.624" x2="0.782" y2="0.887" gradientUnits="objectBoundingBox">
      <stop offset="0" stop-color="#311944"/>
      <stop offset="1" stop-color="#893976"/>
    </linearGradient>
    <linearGradient id="linear-gradient-9" x1="-0.04" y1="2.547" x2="-0.856" y2="1.013" xlink:href="#linear-gradient"/>
    <linearGradient id="linear-gradient-10" x1="-0.23" y1="1.174" x2="-0.425" y2="0.501" xlink:href="#linear-gradient"/>
    <linearGradient id="linear-gradient-11" x1="-0.23" y1="1.241" x2="-0.425" y2="0.309" xlink:href="#linear-gradient"/>
    <linearGradient id="linear-gradient-12" x1="-3.223" y1="3.1" x2="0.325" y2="1.363" xlink:href="#linear-gradient-6"/>
    <linearGradient id="linear-gradient-13" x1="-0.669" y1="1.724" x2="-1.009" y2="0.619" gradientUnits="objectBoundingBox">
      <stop offset="0.283" stop-color="#aa80f9"/>
      <stop offset="0.996" stop-color="#6165d7"/>
    </linearGradient>
    <linearGradient id="linear-gradient-14" x1="-3.613" y1="2.577" x2="-3.516" y2="0.748" xlink:href="#linear-gradient-6"/>
    <linearGradient id="linear-gradient-15" x1="-1.871" y1="1.962" x2="-1.384" y2="0.763" xlink:href="#linear-gradient-7"/>
    <linearGradient id="linear-gradient-16" x1="-2.041" y1="1.244" x2="-2.08" y2="4.477" xlink:href="#linear-gradient-6"/>
    <linearGradient id="linear-gradient-17" x1="-12.535" y1="3.24" x2="-9.125" y2="0.87" xlink:href="#linear-gradient-7"/>
    <linearGradient id="linear-gradient-18" x1="-6.777" y1="16.147" x2="-5.331" y2="6.308" xlink:href="#linear-gradient-7"/>
    <linearGradient id="linear-gradient-19" x1="-1.372" y1="1.135" x2="-0.318" y2="1.135" xlink:href="#linear-gradient-5"/>
    <linearGradient id="linear-gradient-20" x1="-17.878" y1="13.894" x2="-16.884" y2="13.894" xlink:href="#linear-gradient-5"/>
    <linearGradient id="linear-gradient-21" x1="-18.477" y1="5.882" x2="46.635" y2="65.105" xlink:href="#linear-gradient-6"/>
    <linearGradient id="linear-gradient-22" x1="-7.03" y1="2.686" x2="-1.834" y2="2.07" xlink:href="#linear-gradient-7"/>
    <linearGradient id="linear-gradient-23" x1="-1.357" y1="1.583" x2="0.226" y2="1.008" xlink:href="#linear-gradient-8"/>
    <linearGradient id="linear-gradient-24" x1="-1.197" y1="2.251" x2="0.052" y2="1.486" xlink:href="#linear-gradient-7"/>
    <linearGradient id="linear-gradient-25" x1="0.841" y1="0.696" x2="-0.404" y2="-0.245" xlink:href="#linear-gradient-6"/>
    <clipPath id="clip-path-2">
      <path id="Path_183" data-name="Path 183" d="M1764.483,1438.362h71.027s28.326-60.034,3.805-77.791-7.612-67.812-1.691-95.549c16.066-75.254-67.031-79.212-54.116-177.568,3.436-26.16,18.733-74.9-.563-98.65-21.985-27.058-43.406-6.2-56.935-28.185-21.146-34.361-60.646-50.908-89.292-22.213-28.272,28.321-7.279,94.918,58.863,154.96,42.572,48.45,41.658,61.148,33.811,91.328-5.5,21.139-33.4,74.409-7.187,100.622s45.311,53.317,30.863,76.1C1731.084,1396.084,1764.483,1438.362,1764.483,1438.362Z" transform="translate(-1624.451 -923.723)" fill="none"/>
    </clipPath>
    <linearGradient id="linear-gradient-26" x1="0.261" y1="0.066" x2="0.945" y2="1.035" gradientUnits="objectBoundingBox">
      <stop offset="0.004" stop-color="#e38ddd"/>
      <stop offset="1" stop-color="#9571f6"/>
    </linearGradient>
    <clipPath id="clip-path-3">
      <path id="Path_190" data-name="Path 190" d="M1737,1555.637h68.071c3.966-9.636,9.029-27.412-5.213-31.795-19.8-6.092-20.007-41-14.469-53.307,6.854-15.231,22.085-51.024-8.377-60.923-25.359-8.242-43.408-8.377-44.931-41.123s-19.229-53.308-48.929-51.595c-31.255,1.8-56.544-39.98-82.246-26.272-44.785,23.884-4.951,96.334,49.119,117.658s22.807,40.621,21.133,67.4c-2.285,36.554,47.215,29.129,60.162,43.6C1741.464,1530.616,1739.443,1546.142,1737,1555.637Z" transform="translate(-1581.541 -1287.854)" fill="none"/>
    </clipPath>
  </defs>
  <g id="Group_163" data-name="Group 163" transform="translate(0 0)">
    <path id="Path_132" data-name="Path 132" d="M1891.947,1540.893c-39.074,1.66-82.535,5.1-133.906,22.739-11.654,4-120.184,44.022-116.8,67.017,2.5,16.988,59.66,9.506,149.214,34.171,94.445,26.013,111.771,39.469,167.178,41.561,63.6,2.4,66.966-25.211,149.065-32.845,46.463-4.321,61.892,2.989,106.345,8.376,18.026,2.185,27.876,2.731,56.615,4.256,130.931,6.949,154.441,13.526,159.011,3.223,7.695-17.35-47.158-62.646-98.374-89.125-44.527-23.02-82.494-29.827-155.382-42.95C2049.667,1534.763,1956.791,1538.139,1891.947,1540.893Z" transform="translate(-1600.616 -1011.221)" fill="#6165d7" opacity="0.19" style="mix-blend-mode: multiply;isolation: isolate"/>
    <path id="Path_133" data-name="Path 133" d="M2225.362,1572.987c-331.528-83.787-350.376-66.53-355.756-57.765-9.814,15.984,1.141,45.064,21.336,71.5-17.782-3.722-35.122-4.015-49.625,1.586-30.022,11.594-68.564,2.25-69.445,10.87-.984,9.626,42.168,26.043,66.425,26.569,52.816,1.147,110.943,16.453,140.544,21.269,63.873,16.453,136.009-3.7,168.585-9.846,58.3-11,81.55-25.434,141.985-25.621,48.474-.151,84.137,8.722,84.824,5.59C2375.563,1611.078,2242.146,1577.229,2225.362,1572.987Z" transform="translate(-1642.426 -1001.189)" fill="#6165d7" opacity="0.32" style="mix-blend-mode: multiply;isolation: isolate"/>
    <g id="Group_102" data-name="Group 102" transform="translate(148.852 0)">
      <g id="Group_101" data-name="Group 101" clip-path="url(#clip-path)">
        <path id="Path_134" data-name="Path 134" d="M1836.688,1179.274h69.59s13.1-35.7-3.954-60.891c-34.8-51.4,12.653-78.288,30.841-92.523,27.429-21.467,39.516-49.2,6.531-67.194-37.321-20.357-4.425-74.542,44.871-102.826,48.239-27.678,26.873-129.4-83.033-79.08-65.636,30.05-55.355,99.64-58.519,136.016s-57.264,39.386-38.749,83.824c15.816,37.958,45.866,65.636,22.933,91.732S1801.893,1143.689,1836.688,1179.274Z" transform="translate(-1800.414 -762.992)" fill="url(#linear-gradient)"/>
        <g id="Group_100" data-name="Group 100" transform="translate(0.879 2.105)">
          <path id="Path_135" data-name="Path 135" d="M1893.672,1195.583c-.164-.9-16.3-90.755-5.444-184.677,6.384-55.208,20.709-101.01,42.578-136.132,27.377-43.969,66.7-71.223,116.883-81.005l.29,1.493c-112.7,21.971-148.258,129.49-158.241,215.82-10.833,93.7,5.267,183.333,5.43,184.227Z" transform="translate(-1828.185 -774.943)" fill="#beb8f2"/>
          <path id="Path_136" data-name="Path 136" d="M1936.368,884.8c-6.077-48.812,12.485-118.021,12.673-118.714l1.468.4c-.188.692-18.671,69.617-12.631,118.128Z" transform="translate(-1844.396 -766.087)" fill="#beb8f2"/>
          <path id="Path_137" data-name="Path 137" d="M1964.623,888.427l-.805-1.29c50.069-31.2,96.915-16.179,97.382-16.025l-.479,1.444C2060.261,872.4,2014.062,857.624,1964.623,888.427Z" transform="translate(-1853.568 -798.487)" fill="#beb8f2"/>
          <path id="Path_138" data-name="Path 138" d="M1886.012,1162.594l-1.48-.351c16.584-69.927,112.051-87.487,112.973-87.487l.045,1.519C1996.619,1076.365,1902.413,1093.437,1886.012,1162.594Z" transform="translate(-1828.204 -864.835)" fill="#beb8f2"/>
          <path id="Path_139" data-name="Path 139" d="M1859.01,1125.145c-9.119-43.855-56.823-74.114-57.3-74.413l.806-1.291c.486.3,48.736,30.91,57.987,75.395Z" transform="translate(-1801.706 -856.737)" fill="#beb8f2"/>
          <path id="Path_140" data-name="Path 140" d="M1896.217,1339.938l-1.518-.121c2.184-27.768,40.155-48.831,41.772-49.713l.728,1.334C1936.812,1291.651,1898.335,1312.992,1896.217,1339.938Z" transform="translate(-1831.456 -933.729)" fill="#beb8f2"/>
          <path id="Path_141" data-name="Path 141" d="M1868.005,1306.464c-3.5-20.481-34.99-43.691-45.337-51.318a34.226,34.226,0,0,1-3.183-2.455l1.137-1.01c.2.213,1.472,1.153,2.947,2.241,10.471,7.717,42.334,31.2,45.935,52.288Z" transform="translate(-1807.394 -921.436)" fill="#beb8f2"/>
        </g>
      </g>
    </g>
    <g id="Group_106" data-name="Group 106" transform="translate(205.03 282.14)">
      <g id="Group_105" data-name="Group 105">
        <path id="Path_143" data-name="Path 143" d="M2015.377,1201.495s-46.744-80.941-109.962,56.707c-49.226,107.183-17.411,226.426,96.472,259.146s291.752-33.361,235.921-79.932C2119.379,1338.63,2029.5,1251.069,2015.377,1201.495Z" transform="translate(-1883.019 -1177.853)" fill="url(#linear-gradient-2)"/>
        <g id="Group_103" data-name="Group 103" transform="translate(70.795 0.015)" opacity="0.35" style="mix-blend-mode: multiply;isolation: isolate">
          <path id="Path_144" data-name="Path 144" d="M1994.406,1274.443c-3.114,9.873-8.463,37.529-7.06,69.647,1.253,28.652-1.348,43.631,44.235,64.47,15.624,7.143,26.43,29.81,50.353,43.294,10.846,6.113,51.7,28.231,104.47,19.294,34.913-5.913,60.909-23.038,78.414-38.995-115.3-96.621-202.273-181.962-216.139-230.652,0,0-17.08-29.551-44.547-22.556a64.251,64.251,0,0,1,16.155,33.85C2023.349,1234.238,2004.623,1242.046,1994.406,1274.443Z" transform="translate(-1987.117 -1177.875)" fill="url(#linear-gradient-3)"/>
        </g>
        <g id="Group_104" data-name="Group 104" transform="translate(0 52.305)" opacity="0.13" style="mix-blend-mode: multiply;isolation: isolate">
          <path id="Path_145" data-name="Path 145" d="M2184.161,1509.393c-53.858,29.74-143.808,47.892-210.823-1.882-62.05-46.086-67.578-123.269-69.647-146.823a228.849,228.849,0,0,1,16.023-105.925c-4.66,8.146-9.431,17.442-14.3,28.043-49.226,107.183-17.411,226.426,96.472,259.145,112.1,32.206,286.187-31.312,238.377-77.725A211.787,211.787,0,0,1,2184.161,1509.393Z" transform="translate(-1883.019 -1254.763)" fill="url(#linear-gradient-4)"/>
        </g>
      </g>
      <path id="Path_146" data-name="Path 146" d="M2118.794,1502.119q-2.39,0-4.82-.054c-41.635-.93-100.086-14.758-142.115-75.357-35.5-51.187-30.75-108.947-20.515-148.39,11.075-42.673,30.792-73.69,30.99-74a.905.905,0,1,1,1.523.978c-.2.306-19.778,31.121-30.773,73.526-10.128,39.06-14.834,96.246,20.263,146.851,41.58,59.953,99.411,73.646,140.6,74.579,44.766,1,80.05-12.365,80.4-12.5a.906.906,0,0,1,.65,1.691C2194.662,1489.577,2161.547,1502.119,2118.794,1502.119Z" transform="translate(-1902.501 -1186.187)" fill="#ffa6a4"/>
    </g>
    <g id="Group_119" data-name="Group 119" transform="translate(291.899 290.691)">
      <g id="Group_110" data-name="Group 110" transform="translate(97.22 187.016)">
        <g id="Group_107" data-name="Group 107" transform="translate(242.865 70.953)">
          <path id="Path_147" data-name="Path 147" d="M2527.552,1611.338c-2.969-3.2-8.287-16.951,1.413-19.777,9.755-2.841,15.177-6.44,28.609-17.208s16.882-1.521-2.09,15.967S2531.773,1615.881,2527.552,1611.338Z" transform="translate(-2514.842 -1569.746)" fill="url(#linear-gradient-5)"/>
          <path id="Path_148" data-name="Path 148" d="M2510.815,1597.708l7.99,6.977a5.009,5.009,0,0,0,5.97.46,3.253,3.253,0,0,0,.376-5.22l-11.679-9.994Z" transform="translate(-2510.815 -1576.204)" fill="url(#linear-gradient-6)"/>
        </g>
        <g id="Group_109" data-name="Group 109">
          <path id="Path_149" data-name="Path 149" d="M2157.253,1490.7c-14.118,12.367,15.352,52.926,62.429,39.78,57.048-15.931,129.6-8.772,178.51,31.049,2.837-2.524,9.865-6.485,6.651-9.735-44.182-44.677-85.1-70.325-119-77.207C2234.6,1464.179,2197.452,1455.48,2157.253,1490.7Z" transform="translate(-2153.704 -1465.416)" fill="url(#linear-gradient-7)"/>
          <g id="Group_108" data-name="Group 108" transform="translate(0)" opacity="0.24" style="mix-blend-mode: multiply;isolation: isolate">
            <path id="Path_150" data-name="Path 150" d="M2322.76,1507.682c8.276,4.814,10.04-4.967,14.31-11.4-18.327-11.253-35.536-18.513-51.226-21.7-51.244-10.4-88.392-19.1-128.59,16.113-14.118,12.367,15.351,52.926,62.428,39.78a219.5,219.5,0,0,1,54.19-7.786C2288.951,1513.206,2301.291,1491.447,2322.76,1507.682Z" transform="translate(-2153.705 -1465.416)" fill="#552d63"/>
          </g>
        </g>
      </g>
      <g id="Group_111" data-name="Group 111" transform="translate(67.198 190.503)">
        <path id="Path_151" data-name="Path 151" d="M2134.8,1534.585l-2.9,1.107s-18.745-17.7-22.086-22.208c-4.077-5.5,41.825-19.534,56.731-37.892,15.663-19.289,3.289,22.9,3.289,22.9Z" transform="translate(-2109.559 -1470.543)" fill="url(#linear-gradient-8)"/>
      </g>
      <g id="Group_114" data-name="Group 114" transform="translate(0 76.873)">
        <path id="Path_152" data-name="Path 152" d="M2121.674,1309.392s16.641,2.281,34.888,34.638c13.719,24.327,43.507,44.482,43.507,44.482l3.058,19.143L2178.405,1412l-8.843-5.824-24.124-51.327Z" transform="translate(-2046.237 -1305.359)" fill="url(#linear-gradient-9)"/>
        <g id="Group_113" data-name="Group 113" transform="translate(1.239)">
          <path id="Path_153" data-name="Path 153" d="M2054.5,1305.431s-41.02,5.059-41.9,52.26c-.813,43.558,14.9,60.435,53.466,96.755,3.877,3.652,10.166,3.653,10.632,4.179q3.757,4.238,7.61,8.848c34.512-33.12,73.427-44.337,73.427-44.337s-35.99-74.455-51.8-99.136C2089.628,1298.555,2065.036,1302.9,2054.5,1305.431Z" transform="translate(-2012.573 -1303.461)" fill="url(#linear-gradient-10)"/>
          <g id="Group_112" data-name="Group 112" transform="translate(0 45.423)" opacity="0.2" style="mix-blend-mode: multiply;isolation: isolate">
            <path id="Path_154" data-name="Path 154" d="M2122.61,1436.755c-17.315,9.265-41.857,8.217-50.882-3.249-6.8-8.635-7.9-11.852-16.172-25.412-6.656-10.909-9.9-12.657-24.439-21.841a73.283,73.283,0,0,1-17.826-16,73.221,73.221,0,0,0-.688,8.807c-.813,43.559,14.9,60.435,53.466,96.755,3.877,3.652,10.166,3.653,10.632,4.178q3.757,4.239,7.61,8.849c34.512-33.12,73.427-44.337,73.427-44.337s-5.973-11.71-13.883-28.176C2138.117,1425.941,2133.718,1430.811,2122.61,1436.755Z" transform="translate(-2012.573 -1370.252)" fill="url(#linear-gradient-11)"/>
          </g>
        </g>
        <path id="Path_155" data-name="Path 155" d="M2132.784,1460.344s7.774.359,13.295-1.865,5.067-2.735,11.422-3.542c6.178-.784,18.345-4.451,11.457-10.717-7.668-6.974-20.811-5.018-24.587-.389-3.64,4.463-9.95,7.3-9.95,7.3Z" transform="translate(-2049.792 -1347.032)" fill="url(#linear-gradient-12)"/>
        <path id="Path_156" data-name="Path 156" d="M2024.4,1340.828s-22.783,2.652-9.489,76.016c6.895,38.05,40.977,32.694,82.132,16.972,2.786-5.828-.8-18.181-.8-18.181s-51.131,21.082-52.454-9.674C2042.311,1371.476,2037.7,1337.185,2024.4,1340.828Z" transform="translate(-2010.751 -1315.33)" fill="url(#linear-gradient-13)"/>
        <path id="Path_157" data-name="Path 157" d="M2078.686,1322.248c-9.78,0-19.707-7.235-20.183-7.585a.453.453,0,1,1,.537-.729c.13.1,13.128,9.559,23.624,6.94,2.894-.722,4.874-2.134,5.884-4.2,1.929-3.933-.258-9.008-.281-9.058a.452.452,0,1,1,.827-.365c.1.222,2.381,5.5.269,9.815-1.135,2.317-3.314,3.892-6.48,4.682A17.289,17.289,0,0,1,2078.686,1322.248Z" transform="translate(-2025.969 -1304.589)" fill="#9f73f8"/>
        <path id="Path_158" data-name="Path 158" d="M2109.368,1509.7a.452.452,0,0,1-.3-.788c.368-.331,37.106-33.218,70.278-41.327a.459.459,0,0,1,.547.333.452.452,0,0,1-.333.546c-32.951,8.057-69.52,40.791-69.886,41.12A.451.451,0,0,1,2109.368,1509.7Z" transform="translate(-2042.155 -1355.964)" fill="#ae87f9"/>
      </g>
      <g id="Group_115" data-name="Group 115" transform="translate(20.955)">
        <path id="Path_159" data-name="Path 159" d="M2058.189,1264.406s5.818,23.534,4.653,28.347,5.722,10.045,17.792,10.582-1.3-24.176-1.3-24.176Z" transform="translate(-2046.882 -1214.094)" fill="url(#linear-gradient-14)"/>
        <path id="Path_160" data-name="Path 160" d="M2093.916,1218.8c7.517-12.42-2.037-30.3-17.648-24.1-10.649,4.227-17.4,1.236-24.451,3.838-12.555,4.636-11.193,13.561-8.3,22.64,2.521,18,2.424,25.1,21.686,35.63C2072.552,1231.312,2084.747,1233.949,2093.916,1218.8Z" transform="translate(-2041.563 -1191.386)" fill="url(#linear-gradient-15)"/>
        <path id="Path_161" data-name="Path 161" d="M2057.276,1262.8s7.752,12.825,23.285,11.874,11.113-36.645,7.207-38.675c-4.529-2.354-10.874.669-21.2-.971-4.347-.691-8.36-5.773-10.211.058-2.106,6.633-.545,16.674-.545,16.674s-4.788-4.147-7.214.258C2046.643,1255.568,2049.878,1260.13,2057.276,1262.8Z" transform="translate(-2043.635 -1203.827)" fill="url(#linear-gradient-16)"/>
        <path id="Path_162" data-name="Path 162" d="M2057.949,1225.147s-.743,21.288,4.533,27.884c2.4,4.141-.716,4.234-3.339,1.179s-5.462-12.821-5.462-12.821Z" transform="translate(-2045.44 -1201.534)" fill="url(#linear-gradient-17)"/>
        <path id="Path_163" data-name="Path 163" d="M2064.4,1198.091l-.1.007a.425.425,0,0,1-.049-.849c.006,0,.007,0,.03,0,.7-.044,14.254-.953,17.183-6.592a.426.426,0,0,1,.756.392C2079.1,1197.034,2065.8,1198,2064.4,1198.091Z" transform="translate(-2048.693 -1190.426)" fill="url(#linear-gradient-18)"/>
      </g>
      <g id="Group_116" data-name="Group 116" transform="translate(87.641 130.031)">
        <path id="Path_164" data-name="Path 164" d="M2140.435,1479.594a.99.99,0,0,0-.812.681c-.014.052.131,1.912.126,1.968a.934.934,0,0,0,.642.967l34.881,11.33,65.186-25.528-30.972,2.369Z" transform="translate(-2139.62 -1409.581)" fill="#26264f"/>
        <path id="Path_165" data-name="Path 165" d="M2140.418,1478.376a.933.933,0,0,0-.153,1.812l34.88,11.33,65.186-25.528-30.972,2.369Z" transform="translate(-2139.619 -1408.615)" fill="#444b8c"/>
        <path id="Path_166" data-name="Path 166" d="M2189.588,1464.02l5.2-68a2.357,2.357,0,0,1,1.985-2.148l78.063-12.218a2.356,2.356,0,0,1,2.719,2.437l-2.93,63.38a2.357,2.357,0,0,1-1.925,2.208l-81.1,15.014Z" transform="translate(-2155.605 -1381.625)" fill="url(#linear-gradient-19)"/>
        <path id="Path_167" data-name="Path 167" d="M2192.042,1467.085l5.359-69.5a2.356,2.356,0,0,1,1.985-2.146l78.063-12.219a2.357,2.357,0,0,1,2.719,2.437l-2.931,63.389a2.357,2.357,0,0,1-1.914,2.206Z" transform="translate(-2156.39 -1382.127)" fill="#26264f"/>
        <path id="Path_168" data-name="Path 168" d="M2192.042,1489.07l83.282-15.832a2.357,2.357,0,0,0,1.914-2.206l.884-19.117c-24.81,14.089-55.9,15.881-84.875,21.533Z" transform="translate(-2156.39 -1404.112)" fill="#1f1f44"/>
      </g>
      <g id="Group_118" data-name="Group 118" transform="translate(84.319 181.029)">
        <path id="Path_169" data-name="Path 169" d="M2398.884,1478.48c-1.138-3.953-3.655-8.322,5.327-11.509,6.52-2.314,17.847-3.057,28.141-3.585,14.426-.74,17.743,7.89-3.338,13.381C2415.207,1480.363,2400.5,1484.1,2398.884,1478.48Z" transform="translate(-2218.853 -1458.766)" fill="url(#linear-gradient-20)"/>
        <path id="Path_170" data-name="Path 170" d="M2412.635,1474.909a3.836,3.836,0,0,1-3.112,4.212c-4.269.609-3.468-1.588-3.6-3.8s-1.861-3.748,3.112-4.211C2410.882,1470.938,2412.5,1472.7,2412.635,1474.909Z" transform="translate(-2221.363 -1461.247)" fill="url(#linear-gradient-21)"/>
        <path id="Path_171" data-name="Path 171" d="M2351.576,1457.682l4.214-.664s8.208.768,30.828,7c4.842.8,11.444,14.936-2.744,15.491s-31.458,11.121-31.458,11.121Z" transform="translate(-2204.105 -1456.743)" fill="url(#linear-gradient-22)"/>
        <path id="Path_172" data-name="Path 172" d="M2134.89,1523.308s2.066,18.34,44.71,16.671,118.825-45.938,118.346-69.168-28.828-13.95-58.179-.523c-24.775,11.334-63.043,17.9-70.886,19.114C2158.839,1490.96,2132.464,1514.5,2134.89,1523.308Z" transform="translate(-2134.734 -1456.613)" fill="url(#linear-gradient-23)"/>
        <g id="Group_117" data-name="Group 117" transform="translate(20.449 0.159)" opacity="0.2" style="mix-blend-mode: multiply;isolation: isolate">
          <path id="Path_173" data-name="Path 173" d="M2200.307,1500.4c19.739-2.01,24.171-16.176,48.734-20.272,15.917-2.654,21.538,2.047,29.653-3.387,6.4-4.29,9.675-11.77,11.249-19.893-10.885.923-25.578,6.664-40.556,13.516-24.063,11.008-60.855,17.516-70.135,19-.275.043-6.5-2.181-6.5-2.181s-4.631,2.646-7.952,4.735C2177.742,1498.85,2193.1,1501.134,2200.307,1500.4Z" transform="translate(-2164.802 -1456.847)" fill="url(#linear-gradient-24)"/>
        </g>
      </g>
    </g>
    <g id="Group_130" data-name="Group 130" transform="translate(0 109.311)">
      <g id="Group_129" data-name="Group 129">
        <g id="Group_128" data-name="Group 128">
          <g id="Group_123" data-name="Group 123" transform="translate(29.183)">
            <path id="Path_174" data-name="Path 174" d="M1753.068,1361.416c-12.639,19.93-6.079,42.405,1.022,57.887,2.142.3,3.309,1.056,5.406,1.869,18.925,7.344,39.246,11.039,58.935,15.107,4.238.876,8.4,1.079,12.7,1.635l4.382.448s28.326-60.034,3.805-77.791-7.612-67.812-1.691-95.549c16.066-75.254-67.031-79.213-54.116-177.568,3.436-26.16,18.734-74.9-.563-98.65-21.985-27.058-43.406-6.2-56.935-28.185-21.146-34.361-60.646-50.908-89.292-22.213-28.272,28.321-7.279,94.918,58.863,154.96,42.571,48.45,41.657,61.148,33.81,91.328-5.5,21.139-33.4,74.409-7.187,100.622S1767.516,1338.633,1753.068,1361.416Z" transform="translate(-1624.451 -923.723)" fill="url(#linear-gradient-25)"/>
            <g id="Group_122" data-name="Group 122">
              <g id="Group_121" data-name="Group 121" clip-path="url(#clip-path-2)">
                <g id="Group_120" data-name="Group 120" transform="translate(-10.078 -15.456)">
                  <path id="Path_175" data-name="Path 175" d="M1793.906,1423.549l-1.529-.011c.066-8.768.023-17.622-.126-26.313-1.106-64.279-8.17-126.124-21-183.814a741.412,741.412,0,0,0-45.016-138.458,619.284,619.284,0,0,0-53.035-96.465,495.255,495.255,0,0,0-44.171-56.439c-2.649-2.9-5.536-5.734-8.326-8.473-3.766-3.7-7.661-7.518-11.073-11.6l1.173-.981c3.363,4.023,7.229,7.818,10.969,11.487,2.806,2.755,5.708,5.6,8.386,8.534a497,497,0,0,1,44.307,56.615,620.677,620.677,0,0,1,53.167,96.7,742.739,742.739,0,0,1,45.109,138.743c12.852,57.791,19.928,119.738,21.037,184.118C1793.93,1405.9,1793.972,1414.768,1793.906,1423.549Z" transform="translate(-1609.632 -900.997)" fill="#fcfdfe"/>
                  <path id="Path_176" data-name="Path 176" d="M1809.364,1158c-19.3-60.85,18.177-163.228,18.558-164.255l1.433.531c-.379,1.022-37.678,102.912-18.533,163.26Z" transform="translate(-1671.763 -930.669)" fill="#fcfdfe"/>
                  <path id="Path_177" data-name="Path 177" d="M1831.172,1450.546c-8.083-41.865-79.6-83.062-80.324-83.475l.756-1.326c.728.414,72.852,41.958,81.07,84.511Z" transform="translate(-1654.809 -1049.678)" fill="#fcfdfe"/>
                  <path id="Path_178" data-name="Path 178" d="M1872.737,1473.9c-.368-28.572,14.328-67.628,41.381-109.975.589-.924,1.1-1.721,1.173-1.873l.582.286h.887c0,.288,0,.288-1.356,2.408-26.9,42.1-41.5,80.857-41.139,109.135Z" transform="translate(-1693.802 -1048.496)" fill="#fcfdfe"/>
                  <path id="Path_179" data-name="Path 179" d="M1853.806,1623.514c-9.083-29.036-51.4-45.715-51.83-45.88l.551-1.425c.433.167,43.434,17.106,52.736,46.85Z" transform="translate(-1671.166 -1117.008)" fill="#fcfdfe"/>
                  <path id="Path_180" data-name="Path 180" d="M1880.974,1638.045l-1.433-.532c8.809-23.789,24.714-45.806,48.621-67.309l1.022,1.137C1905.465,1592.673,1889.7,1614.492,1880.974,1638.045Z" transform="translate(-1695.981 -1115.088)" fill="#fcfdfe"/>
                  <path id="Path_181" data-name="Path 181" d="M1710.3,999.488c-12.58-33.13-18.1-70.786-19.918-83.16-.315-2.151-.565-3.849-.651-4.123l1.45-.481c.119.358.276,1.406.712,4.382,1.81,12.334,7.314,49.864,19.835,82.839Z" transform="translate(-1635.256 -904.429)" fill="#fcfdfe"/>
                  <path id="Path_182" data-name="Path 182" d="M1720.281,1098.566c-19.937-25.595-87.068-33.7-87.745-33.778l.178-1.518c2.785.324,68.445,8.261,88.772,34.356Z" transform="translate(-1616.96 -952.911)" fill="#fcfdfe"/>
                </g>
              </g>
            </g>
          </g>
          <g id="Group_127" data-name="Group 127" transform="translate(0 247.639)">
            <path id="Path_184" data-name="Path 184" d="M1738.6,1535.5c.264.116.522.242.793.346,19.038,7.344,39.246,11.038,58.936,15.107,2.651.548,5.321,1.008,8,1.413,3.555-9.942,6.279-24.6-6.471-28.519-19.8-6.092-20.007-41-14.469-53.307,6.854-15.231,22.085-51.024-8.377-60.923-25.359-8.242-43.408-8.377-44.931-41.123s-19.229-53.308-48.929-51.595c-31.255,1.8-56.544-39.98-82.246-26.272-44.785,23.884-4.951,96.334,49.119,117.658s22.807,40.621,21.133,67.4c-2.285,36.554,47.215,29.13,60.162,43.6A30.046,30.046,0,0,1,1738.6,1535.5Z" transform="translate(-1581.541 -1287.854)" fill="url(#linear-gradient-26)"/>
            <g id="Group_126" data-name="Group 126">
              <g id="Group_125" data-name="Group 125" clip-path="url(#clip-path-3)">
                <g id="Group_124" data-name="Group 124" transform="translate(-11.647 8.365)">
                  <path id="Path_185" data-name="Path 185" d="M1769.1,1548.87c-20.744-105.364-92.516-200.143-187.31-247.349l.683-1.367c95.207,47.414,167.293,142.6,188.126,248.42Z" transform="translate(-1569.974 -1300.154)" fill="#fcfdfe"/>
                  <path id="Path_186" data-name="Path 186" d="M1834.777,1546.392l-1.529-.006c.19-43.062,37.112-76.369,37.486-76.7l1.014,1.143C1871.381,1471.155,1834.963,1504.024,1834.777,1546.392Z" transform="translate(-1650.419 -1354.391)" fill="#fcfdfe"/>
                  <path id="Path_187" data-name="Path 187" d="M1804.776,1616.532c-19.848-37.179-97.065-42.81-97.844-42.863l.1-1.524c.786.052,78.846,5.75,99.088,43.667Z" transform="translate(-1610.008 -1387.169)" fill="#fcfdfe"/>
                  <path id="Path_188" data-name="Path 188" d="M1754.629,1409.037c-13.678-31.919,7.2-80.544,7.409-81.031l1.4.611c-.209.481-20.821,48.508-7.4,79.817Z" transform="translate(-1623.782 -1309.064)" fill="#fcfdfe"/>
                  <path id="Path_189" data-name="Path 189" d="M1648.442,1367.235c-32.489-20.167-83.19-9.282-83.7-9.17l-.329-1.491c.514-.116,51.824-11.124,84.832,9.362Z" transform="translate(-1564.415 -1317.226)" fill="#fcfdfe"/>
                </g>
              </g>
            </g>
          </g>
        </g>
      </g>
      <path id="Path_191" data-name="Path 191" d="M1897.351,1669.922l.5,2.471c-42.823-.3-94.651-20.938-95.154-21.145-.372-.152.51-2.82.663-3.193a.727.727,0,0,1,.951-.4c.5.2,50.506,20.509,93.042,20.807a.729.729,0,0,1,0,1.458Z" transform="translate(-1652.264 -1155.304)" fill="#5a2f71"/>
    </g>
  </g>
</svg>
